<svg width="431" height="519" viewBox="0 0 431 519" fill="none" xmlns="http://www.w3.org/2000/svg">
<g clip-path="url(#clip0)">
<path d="M215.5 139.75C173.743 139.75 139.75 173.743 139.75 215.5V483.459H151.5V215.5C151.5 180.248 180.248 151.5 215.5 151.5C250.752 151.5 279.499 180.248 279.499 215.5H291.25C291.25 173.743 257.257 139.75 215.5 139.75Z" fill="#466466"/>
<path d="M221.375 227.041H209.625V372.666H221.375V227.041Z" fill="#03FF69"/>
<path d="M221.375 442.541H209.625V518.291H221.375V442.541Z" fill="#03FF69"/>
<path d="M291.25 296.916H279.5V495H291.25V296.916Z" fill="#466466"/>
<path d="M81.6257 331.749H69.8749V442.541H81.6257V331.749Z" fill="#466466"/>
<path d="M431 296.916H419.249V372.666H431V296.916Z" fill="#466466"/>
<path d="M328.811 169.756L329.86 169.336L328.811 169.756Z" fill="#466466"/>
<path d="M349.374 431H361.125V215.5C361.125 196.615 357.558 178.359 350.633 160.943L339.722 165.349C346.227 181.297 349.374 198.084 349.374 215.5V431Z" fill="#466466"/>
<path d="M69.8749 215.5V238.792H81.6257V215.5C81.6257 141.638 141.638 81.6256 215.5 81.6256C246.346 81.6256 275.303 91.6977 299.224 111.002L306.568 101.77C280.968 81.2059 248.444 69.665 215.5 69.665C135.133 69.8749 69.8749 135.133 69.8749 215.5Z" fill="#466466"/>
<path d="M418.83 203.959H430.79C424.705 90.4387 330.489 0 215.5 0C185.494 0 156.536 6.0852 129.258 18.0458L134.084 28.9572C159.894 17.6261 187.172 11.9606 215.71 11.9606C323.984 11.7507 412.744 96.9435 418.83 203.959Z" fill="#466466"/>
<path d="M138.701 39.4488L138.281 38.8193L138.701 39.4488Z" fill="#466466"/>
<path d="M0 361.125H11.7507V215.5C11.7507 165.35 30.2162 117.088 63.5798 79.7371L54.7668 71.7634C19.5146 111.422 0 162.412 0 215.5V361.125Z" fill="#466466"/>
</g>
<defs>
<clipPath id="clip0">
<rect width="431" height="518.291" fill="white"/>
</clipPath>
</defs>
</svg>
