<svg width="431" height="519" fill="none" xmlns="http://www.w3.org/2000/svg"><g clip-path="url(#clip0)"><path d="M215.5 139.75c-41.757 0-75.75 33.993-75.75 75.75v267.959h11.75V215.5c0-35.252 28.748-64 64-64 35.252 0 63.999 28.748 63.999 64h11.751c0-41.757-33.993-75.75-75.75-75.75z" fill="#466466"/><path d="M221.375 227.041h-11.75v145.625h11.75V227.041zm0 215.5h-11.75v75.75h11.75v-75.75z" fill="#03FF69"/><path d="M291.25 296.916H279.5V495h11.75V296.916zM81.626 331.749H69.875v110.792h11.75V331.749zM431 296.916h-11.751v75.75H431v-75.75zm-102.189-127.16l1.049-.42-1.049.42zM349.374 431h11.751V215.5c0-18.885-3.567-37.141-10.492-54.557l-10.911 4.406c6.505 15.948 9.652 32.735 9.652 50.151V431zM69.875 215.5v23.292h11.75V215.5c0-73.862 60.013-133.874 133.875-133.874 30.846 0 59.803 10.072 83.724 29.376l7.344-9.232c-25.6-20.564-58.124-32.105-91.068-32.105-80.367.21-145.625 65.468-145.625 145.835z" fill="#466466"/><path d="M418.83 203.959h11.96C424.705 90.439 330.489 0 215.5 0c-30.006 0-58.964 6.085-86.242 18.046l4.826 10.911c25.81-11.33 53.088-16.996 81.626-16.996 108.274-.21 197.034 84.983 203.12 191.998zM138.701 39.449l-.42-.63.42.63zM0 361.125h11.75V215.5c0-50.15 18.466-98.412 51.83-135.763l-8.813-7.974C19.515 111.422 0 162.412 0 215.5v145.625z" fill="#466466"/></g><defs><clipPath id="clip0"><path fill="#fff" d="M0 0h431v518.291H0z"/></clipPath></defs></svg>