<svg width="344" height="78" viewBox="0 0 344 78" fill="none" xmlns="http://www.w3.org/2000/svg">
<path d="M73.8922 0.0537733V26.3095H71.8363C69.3526 19.1325 65.6324 13.6763 60.6686 9.9409C55.7047 6.20544 50.2804 4.33772 44.3919 4.33772C38.7609 4.33772 34.0762 5.90431 30.3343 9.03392C26.5924 12.1635 23.9454 16.5335 22.3899 22.1331C20.8344 27.7363 20.0549 33.4864 20.0549 39.38C20.0549 46.5211 20.9069 52.7839 22.6111 58.1648C24.3153 63.5493 27.0637 67.5034 30.86 70.0308C34.6564 72.5581 39.167 73.82 44.3883 73.82C46.2012 73.82 48.0649 73.6264 49.9722 73.2429C51.8794 72.8593 53.8337 72.3 55.8352 71.5687V56.0784C55.8352 53.1496 55.6322 51.2532 55.2225 50.3928C54.8127 49.5324 53.9715 48.7545 52.6952 48.059C51.4189 47.3635 49.8706 47.0158 48.0577 47.0158H46.1142V44.9832H82.7249V47.0158C79.9475 47.1986 78.0112 47.5751 76.9198 48.1415C75.8285 48.7079 74.9836 49.6507 74.3926 50.9699C74.059 51.6654 73.8922 53.3682 73.8922 56.0784V71.5687C69.077 73.691 64.066 75.297 58.8629 76.376C53.6597 77.4551 48.2607 77.9964 42.6696 77.9964C35.5193 77.9964 29.5873 77.0357 24.8628 75.1142C20.1419 73.1927 15.9721 70.6653 12.3643 67.5321C8.75292 64.4025 5.92835 60.8786 3.89059 56.9567C1.29445 51.9092 0 46.2486 0 39.9894C0 28.7831 3.98124 19.319 11.9437 11.5899C19.9098 3.86451 29.9282 0 42.0024 0C45.7444 0 49.1128 0.293961 52.1151 0.878298C53.7431 1.17226 56.3827 2.00395 60.0304 3.37696C63.6781 4.74998 65.8355 5.43828 66.5026 5.43828C67.5396 5.43828 68.5041 5.06545 69.3925 4.31262C70.2808 3.56338 71.0966 2.14376 71.8363 0.0537733H73.8922Z" fill="#466466"/>
<path d="M162.23 0.0537109V25.8721H160.062C158.43 19.1361 155.395 13.9702 150.95 10.3818C146.505 6.7933 141.468 4.99727 135.837 4.99727C131.134 4.99727 126.816 6.33443 122.893 9.00876C118.966 11.6831 116.094 15.1784 114.281 19.5017C111.946 25.0332 110.782 31.1849 110.782 37.9567C110.782 44.621 111.634 50.6938 113.338 56.1644C115.043 61.6385 117.708 65.7755 121.337 68.5788C124.967 71.3786 129.669 72.7803 135.449 72.7803C140.188 72.7803 144.532 71.7551 148.477 69.7045C152.422 67.6539 156.577 64.1192 160.95 59.104V65.5317C156.73 69.8909 152.328 73.0492 147.755 75.0065C143.18 76.9639 137.839 77.9462 131.725 77.9462C123.687 77.9462 116.547 76.3545 110.307 73.1675C104.067 69.9805 99.2518 65.4026 95.8616 59.4338C92.4714 53.465 90.7781 47.1125 90.7781 40.3729C90.7781 33.2677 92.6563 26.5317 96.4164 20.1578C100.176 13.7874 105.249 8.84386 111.638 5.32708C118.027 1.81031 124.814 0.0537109 132.001 0.0537109C137.298 0.0537109 142.89 1.19012 148.778 3.45935C152.186 4.77859 154.351 5.43821 155.279 5.43821C156.465 5.43821 157.491 5.00803 158.361 4.14765C159.231 3.28728 159.797 1.92144 160.055 0.0537109H162.23Z" fill="#466466"/>
<path d="M173.507 1.75684H212.398V3.78947H210.454C207.528 3.78947 205.52 4.0906 204.425 4.69644C203.333 5.30229 202.554 6.13398 202.09 7.19511C201.625 8.25624 201.393 10.9126 201.393 15.1607V51.6334C201.393 58.2977 201.901 62.7107 202.92 64.8724C203.939 67.0341 205.614 68.8265 207.949 70.2569C210.28 71.6837 213.228 72.4006 216.782 72.4006C220.857 72.4006 224.327 71.4937 227.199 69.6833C230.071 67.8693 232.217 65.3707 233.642 62.1837C235.067 58.9967 235.781 53.4509 235.781 45.5391V15.1607C235.781 11.8304 235.43 9.44642 234.726 8.01964C234.023 6.59285 233.134 5.60342 232.061 5.05493C230.393 4.21248 228.044 3.79305 225.005 3.79305V1.75684H251.061V3.78947H249.505C247.395 3.78947 245.637 4.21248 244.226 5.05135C242.819 5.8938 241.8 7.15926 241.169 8.84057C240.687 10.0128 240.448 12.1172 240.448 15.1571V43.4455C240.448 52.1998 239.864 58.5164 238.697 62.3952C237.529 66.2777 234.686 69.8482 230.168 73.1069C225.651 76.3655 219.483 77.9967 211.669 77.9967C205.15 77.9967 200.113 77.1363 196.556 75.4155C191.705 73.071 188.278 70.0705 186.277 66.4067C184.275 62.7465 183.278 57.8209 183.278 51.6298V15.1607C183.278 10.8768 183.035 8.21322 182.557 7.17002C182.075 6.12681 181.241 5.29512 180.059 4.67135C178.873 4.04758 176.686 3.7572 173.503 3.79305V1.75684H173.507Z" fill="#466466"/>
<path d="M274.024 12.2274C275.293 12.4963 276.243 12.9229 276.874 13.5108C277.748 14.3317 278.183 15.3319 278.183 16.5149C278.183 17.4147 277.896 18.2751 277.32 19.0996C276.743 19.9242 275.953 20.5228 274.948 20.9028C273.944 21.2828 272.41 21.4693 270.347 21.4693H261.703V20.9745H262.392C263.157 20.9745 263.708 20.7344 264.038 20.254C264.245 19.9421 264.35 19.2789 264.35 18.2644V6.56687C264.35 5.4448 264.219 4.73858 263.958 4.44462C263.606 4.05387 263.084 3.8567 262.392 3.8567H261.703V3.3584H269.618C271.094 3.3584 272.28 3.46595 273.172 3.67745C274.524 3.99651 275.554 4.56651 276.265 5.38028C276.975 6.19405 277.331 7.13329 277.331 8.19083C277.331 9.09781 277.051 9.91157 276.493 10.6286C275.938 11.3491 275.115 11.8797 274.024 12.2274ZM266.946 11.5069C267.28 11.5678 267.66 11.6144 268.088 11.6467C268.516 11.6789 268.987 11.6933 269.499 11.6933C270.815 11.6933 271.801 11.5535 272.465 11.2738C273.128 10.9942 273.632 10.564 273.984 9.98686C274.336 9.40969 274.51 8.77517 274.51 8.09045C274.51 7.02932 274.071 6.12593 273.201 5.38028C272.327 4.63103 271.054 4.25821 269.379 4.25821C268.48 4.25821 267.667 4.355 266.946 4.55217V11.5069ZM266.946 20.1608C267.99 20.401 269.02 20.5228 270.039 20.5228C271.671 20.5228 272.911 20.1608 273.766 19.433C274.622 18.7089 275.05 17.8091 275.05 16.7408C275.05 16.0381 274.858 15.3606 274.47 14.7117C274.082 14.0629 273.451 13.5502 272.577 13.1774C271.703 12.8046 270.623 12.6146 269.335 12.6146C268.777 12.6146 268.298 12.6253 267.903 12.6433C267.508 12.6612 267.189 12.6934 266.942 12.7365V20.1608H266.946Z" fill="#466466"/>
<path d="M291.99 9.23796V16.6515C291.99 18.0675 292.023 18.9351 292.091 19.2506C292.16 19.566 292.266 19.7883 292.414 19.9102C292.563 20.0356 292.737 20.0966 292.933 20.0966C293.212 20.0966 293.527 20.0213 293.879 19.8707L294.068 20.3368L290.366 21.846H289.756V19.2541C288.694 20.3941 287.882 21.1111 287.323 21.4051C286.765 21.699 286.174 21.846 285.554 21.846C284.861 21.846 284.26 21.6488 283.752 21.2509C283.244 20.8566 282.889 20.3439 282.693 19.7202C282.494 19.0964 282.396 18.2145 282.396 17.0745V11.6147C282.396 11.034 282.334 10.6361 282.207 10.4138C282.08 10.1915 281.895 10.0195 281.645 9.90116C281.399 9.78286 280.949 9.7255 280.3 9.73267V9.23796H284.637V17.4223C284.637 18.5623 284.836 19.3115 285.239 19.6664C285.637 20.0213 286.123 20.2005 286.689 20.2005C287.077 20.2005 287.516 20.0787 288.005 19.8385C288.495 19.5983 289.078 19.1394 289.753 18.4619V11.5323C289.753 10.8368 289.626 10.3672 289.368 10.1234C289.111 9.87965 288.578 9.74701 287.766 9.72909V9.23438H291.99V9.23796Z" fill="#466466"/>
<path d="M299.176 8.87598V11.6256C300.213 9.79012 301.276 8.87598 302.364 8.87598C302.86 8.87598 303.27 9.02654 303.593 9.32409C303.916 9.62163 304.079 9.96578 304.079 10.3601C304.079 10.7079 303.963 11.0018 303.727 11.242C303.491 11.4822 303.212 11.6041 302.889 11.6041C302.574 11.6041 302.222 11.4499 301.831 11.1416C301.439 10.8333 301.149 10.6792 300.96 10.6792C300.797 10.6792 300.623 10.7688 300.435 10.948C300.029 11.3137 299.612 11.916 299.18 12.7512V18.6161C299.18 19.2937 299.267 19.8063 299.438 20.1504C299.554 20.3906 299.76 20.5914 300.058 20.7527C300.355 20.914 300.783 20.9929 301.341 20.9929V21.4733H295.003V20.9929C295.634 20.9929 296.102 20.8961 296.41 20.6989C296.635 20.5555 296.794 20.3297 296.881 20.0178C296.925 19.8672 296.95 19.4335 296.95 18.7237V13.9773C296.95 12.5541 296.921 11.7045 296.863 11.432C296.805 11.1595 296.696 10.9624 296.54 10.8369C296.385 10.7114 296.189 10.6505 295.953 10.6505C295.674 10.6505 295.358 10.7186 295.007 10.8512L294.873 10.3709L298.614 8.87598H299.176Z" fill="#466466"/>
<path d="M307.429 13.8443C307.418 15.6619 307.864 17.0851 308.767 18.1175C309.666 19.15 310.725 19.6662 311.943 19.6662C312.756 19.6662 313.459 19.4439 314.057 19.0066C314.656 18.5656 315.16 17.8128 315.562 16.7409L315.979 17.0098C315.79 18.2286 315.239 19.34 314.333 20.3401C313.423 21.3403 312.284 21.8422 310.914 21.8422C309.427 21.8422 308.154 21.2686 307.099 20.125C306.04 18.9815 305.511 17.4436 305.511 15.5113C305.511 13.4177 306.055 11.7866 307.139 10.6179C308.223 9.44567 309.587 8.86133 311.225 8.86133C312.611 8.86133 313.753 9.31302 314.645 10.2164C315.537 11.1198 315.983 12.3279 315.983 13.8407H307.429V13.8443ZM307.429 13.07H313.158C313.114 12.2849 313.02 11.7328 312.875 11.4138C312.65 10.9155 312.313 10.5247 311.867 10.2379C311.421 9.95113 310.957 9.81132 310.468 9.81132C309.721 9.81132 309.05 10.0981 308.462 10.6717C307.875 11.2453 307.531 12.0447 307.429 13.07Z" fill="#466466"/>
<path d="M325.222 19.7056C323.952 20.6771 323.155 21.2364 322.832 21.3869C322.346 21.6092 321.828 21.7203 321.28 21.7203C320.424 21.7203 319.721 21.4299 319.166 20.8528C318.611 20.2756 318.336 19.512 318.336 18.5692C318.336 17.9741 318.47 17.4543 318.742 17.0205C319.112 16.4147 319.754 15.8447 320.667 15.3105C321.581 14.7764 323.1 14.1275 325.225 13.3604V12.88C325.225 11.6611 325.029 10.8222 324.638 10.3706C324.246 9.91527 323.677 9.68943 322.93 9.68943C322.364 9.68943 321.911 9.83999 321.577 10.1447C321.237 10.4458 321.063 10.7936 321.063 11.1879L321.088 11.9622C321.088 12.3709 320.983 12.6864 320.769 12.9087C320.559 13.1309 320.279 13.242 319.939 13.242C319.605 13.242 319.333 13.1273 319.123 12.8943C318.912 12.6613 318.804 12.3458 318.804 11.9443C318.804 11.1772 319.199 10.4745 319.993 9.83282C320.787 9.19113 321.897 8.87207 323.329 8.87207C324.427 8.87207 325.327 9.0549 326.03 9.42056C326.563 9.69659 326.955 10.1268 327.205 10.7147C327.368 11.0983 327.448 11.8798 327.448 13.0664V17.2213C327.448 18.3864 327.47 19.1033 327.517 19.365C327.56 19.6267 327.636 19.8024 327.738 19.892C327.843 19.9816 327.963 20.0247 328.097 20.0247C328.242 20.0247 328.369 19.9924 328.474 19.9315C328.662 19.8167 329.029 19.4905 329.569 18.9564V19.7056C328.561 21.0428 327.596 21.7096 326.679 21.7096C326.237 21.7096 325.885 21.559 325.624 21.2543C325.367 20.9531 325.229 20.4369 325.222 19.7056ZM325.222 18.8381V14.1777C323.862 14.7119 322.984 15.0919 322.589 15.3141C321.878 15.7049 321.367 16.1171 321.063 16.5437C320.758 16.9703 320.602 17.44 320.602 17.9454C320.602 18.5871 320.794 19.1177 321.182 19.5407C321.57 19.9637 322.016 20.1752 322.52 20.1752C323.206 20.1752 324.105 19.7307 325.222 18.8381Z" fill="#466466"/>
<path d="M341.919 9.23796V16.6515C341.919 18.0675 341.951 18.9351 342.02 19.2506C342.089 19.566 342.194 19.7883 342.343 19.9102C342.492 20.0356 342.666 20.0966 342.861 20.0966C343.141 20.0966 343.456 20.0213 343.808 19.8707L343.996 20.3368L340.294 21.846H339.685V19.2541C338.623 20.3941 337.81 21.1111 337.252 21.4051C336.694 21.699 336.103 21.846 335.483 21.846C334.79 21.846 334.188 21.6488 333.681 21.2509C333.173 20.8566 332.818 20.3439 332.622 19.7202C332.422 19.0964 332.325 18.2145 332.325 17.0745V11.6147C332.325 11.034 332.263 10.6361 332.136 10.4138C332.009 10.1915 331.824 10.0195 331.574 9.90116C331.327 9.78286 330.878 9.7255 330.229 9.73267V9.23796H334.565V17.4223C334.565 18.5623 334.765 19.3115 335.167 19.6664C335.566 20.0213 336.052 20.2005 336.618 20.2005C337.006 20.2005 337.444 20.0787 337.934 19.8385C338.423 19.5983 339.007 19.1394 339.681 18.4619V11.5323C339.681 10.8368 339.555 10.3672 339.297 10.1234C339.04 9.87965 338.507 9.74701 337.694 9.72909V9.23438H341.919V9.23796Z" fill="#466466"/>
</svg>
