<svg width="384" height="66" viewBox="0 0 384 66" fill="none" xmlns="http://www.w3.org/2000/svg">
<g clip-path="url(#clip0)">
<path d="M180.461 0.308748C179.985 0.105404 179.487 0.0150293 178.982 0.0150293C176.936 0.00749804 174.887 0.00373242 172.841 0.0187949C172.431 0.0225605 172.016 0.0715136 171.609 0.146826C170.803 0.293685 170.203 0.745559 169.883 1.54387C169.767 1.83006 169.665 2.12378 169.585 2.42126C169.473 2.84301 169.404 3.27982 169.284 3.6978C168.256 7.35422 167.209 11.0031 166.188 14.6633C164.244 21.5958 162.3 28.5283 160.392 35.4721C159.487 38.7633 158.655 42.077 157.787 45.3794C157.765 45.4548 157.736 45.5301 157.707 45.6016C157.689 45.6016 157.671 45.6016 157.652 45.6016C157.605 45.4736 157.554 45.3456 157.514 45.2175C157.18 44.1368 156.831 43.0636 156.515 41.9753C154.589 35.4043 152.656 28.8333 150.748 22.2585C149.124 16.6666 147.529 11.0634 145.93 5.46388C145.665 4.53001 145.447 3.58484 145.192 2.6472C145.083 2.24804 144.967 1.84512 144.814 1.46103C144.542 0.783216 144.055 0.338873 143.354 0.199545C142.889 0.105404 142.416 0.0263261 141.944 0.0187949C139.942 -3.31951e-05 137.936 0.00373242 135.93 0.0150293C135.552 0.0187949 135.167 0.067748 134.796 0.146826C132.845 0.583638 132.282 2.46268 132.761 3.74676C132.925 4.18357 133.012 4.65051 133.125 5.10615C133.168 5.27937 133.183 5.46388 133.234 5.6371C133.401 6.19818 133.579 6.75925 133.75 7.32033C135.407 12.724 137.06 18.1277 138.717 23.5313C140.658 29.8613 142.598 36.1951 144.538 42.5251C145.985 47.2472 147.431 51.9655 148.881 56.6876C149.484 58.6533 150.091 60.6227 150.705 62.5846C150.905 63.2285 151.177 63.8423 151.537 64.4071C151.947 65.0548 152.493 65.5406 153.219 65.7514C153.623 65.8682 154.051 65.9586 154.466 65.9661C156.264 65.9924 158.063 65.9887 159.862 65.9849C160.149 65.9849 160.439 65.9473 160.727 65.9209C161.998 65.7929 162.925 65.1339 163.535 63.9741C163.862 63.349 164.117 62.6975 164.324 62.0235C164.956 59.9637 165.578 57.9039 166.206 55.8403C167.351 52.0747 168.495 48.3129 169.644 44.5472C171.322 39.0268 173.001 33.5064 174.68 27.9898C176.682 21.4075 178.688 14.829 180.679 8.24667C181.017 7.13582 181.42 6.04755 181.631 4.89527C181.715 4.44716 181.875 4.01412 181.995 3.56977C182.365 2.20285 181.722 0.847231 180.461 0.308748Z" fill="black"/>
<path d="M97.0565 2.21432C96.7149 1.1976 96.0391 0.549912 95.0434 0.256193C94.4439 0.0792094 93.8261 0.0114282 93.2048 0.0114282C86.8167 0.00766262 80.425 0.003897 74.0369 0.0114282C73.4083 0.0114282 72.7796 0.0716781 72.151 0.124397C71.1081 0.211006 70.0907 0.444474 69.0987 0.78338C65.9737 1.84905 63.5718 3.85613 61.9003 6.78954C60.6285 9.02255 59.9853 11.4627 59.6946 14.0195C59.5711 15.104 59.542 16.1961 59.542 17.2919C59.542 21.3813 59.542 25.4708 59.542 29.564C59.542 32.6593 59.542 35.7547 59.542 38.8463C59.542 42.4424 59.542 46.0424 59.542 49.6385C59.542 53.4606 59.5384 57.2827 59.542 61.1048C59.542 61.8203 59.5529 62.5395 59.691 63.2475C59.9345 64.4901 60.6031 65.3298 61.7986 65.6914C62.3254 65.8495 62.8669 65.9587 63.4156 65.9662C65.3087 65.9851 67.1983 65.9888 69.0914 65.9662C69.7092 65.9587 70.3233 65.8307 70.9083 65.601C71.6205 65.3223 72.1401 64.8366 72.4526 64.1098C72.6743 63.5939 72.7905 63.0517 72.8123 62.4943C72.8487 61.7036 72.8669 60.909 72.8669 60.1182C72.8705 46.4114 72.8669 32.7008 72.8705 18.9939C72.8705 18.6324 72.885 18.2634 72.9432 17.9056C73.3683 15.2057 75.6648 13.3831 77.9577 13.3944C82.9104 13.417 87.8632 13.402 92.8159 13.402C93.51 13.402 94.2004 13.3643 94.8799 13.2099C96.0427 12.9463 96.8058 12.2384 97.1401 11.0447C97.3327 10.3481 97.4199 9.63635 97.4308 8.92088C97.4526 7.48618 97.4526 6.05148 97.4308 4.61678C97.4162 3.80341 97.3181 2.9938 97.0565 2.21432Z" fill="black"/>
<path d="M139.178 41.9528C138.837 41.3578 138.593 40.7327 138.404 40.07C137.394 36.5529 136.37 33.0433 135.349 29.53C135.316 29.4208 135.28 29.2928 135.203 29.2175C134.902 28.9275 134.596 28.6338 134.266 28.3815C134.106 28.261 133.888 28.1782 133.695 28.1669C133.15 28.133 132.649 28.2911 132.253 28.7016C131.86 29.1083 131.573 29.5865 131.421 30.1476C130.759 32.5651 130.076 34.9789 129.447 37.4039C128.866 39.6332 128.335 41.8775 127.794 44.118C127.681 44.5812 127.62 45.0557 127.518 45.6017C127.467 45.4624 127.434 45.3908 127.416 45.3155C127.256 44.6716 127.111 44.0277 126.94 43.3875C125.636 38.5449 124.353 33.6986 123.008 28.8673C120.694 20.5415 118.339 12.227 115.995 3.91251C115.741 3.01253 115.334 2.18033 114.847 1.39708C114.426 0.715503 113.83 0.27116 113.052 0.139363C112.605 0.0640507 112.151 0.0150976 111.697 0.011332C110.145 -0.00373046 108.594 3.51575e-05 107.042 0.0075664C106.537 0.011332 106.032 0.0339257 105.527 0.0640507C105.007 0.0979413 104.506 0.225972 104.037 0.459441C103.339 0.805878 102.86 1.35189 102.656 2.13891C102.518 2.67362 102.554 3.19328 102.711 3.72047C102.86 4.22129 102.972 4.72965 103.099 5.23801C103.132 5.37357 103.15 5.5129 103.19 5.6447C103.361 6.21707 103.535 6.78945 103.71 7.35806C106.086 15.1717 108.463 22.9891 110.839 30.8028C113.023 37.9838 115.211 45.1686 117.394 52.3497C118.386 55.6032 119.371 58.8604 120.37 62.1139C120.628 62.9537 120.945 63.7633 121.446 64.4863C121.871 65.0963 122.42 65.5444 123.121 65.7402C123.546 65.8607 123.993 65.9548 124.429 65.9624C126.228 65.9925 128.027 65.9925 129.825 65.9812C130.359 65.9774 130.897 65.921 131.428 65.8381C132.543 65.6574 133.31 65.0097 133.695 63.9026C133.782 63.6503 133.866 63.398 133.931 63.1382C134.055 62.6298 134.128 62.1064 134.28 61.6093C135.61 57.2751 136.951 52.9484 138.288 48.6179C138.495 47.9477 138.713 47.2812 138.993 46.6335C139.233 46.0799 139.418 45.4962 139.596 44.9163C139.774 44.3402 139.858 43.7339 139.684 43.1465C139.564 42.736 139.393 42.3256 139.178 41.9528Z" fill="black"/>
<path d="M50.4105 60.536C48.8116 58.2465 47.2128 55.9533 45.6176 53.66C42.3509 48.9718 39.0806 44.2836 35.8102 39.5992C34.2005 37.2908 32.5835 34.9863 30.9737 32.678C30.9265 32.6102 30.8756 32.5311 30.8684 32.452C30.8647 32.3842 30.9047 32.26 30.9519 32.2449C31.1554 32.1809 31.2354 32.0002 31.3407 31.8458C33.7717 28.3814 36.199 24.9133 38.6263 21.4489C42.2019 16.3465 45.7775 11.2403 49.3531 6.13412C49.433 6.02115 49.5093 5.90442 49.5638 5.78015C49.7855 5.26426 50.0144 4.74461 50.2143 4.21742C50.4613 3.55467 50.6358 2.87686 50.5958 2.15386C50.5449 1.20493 50.127 0.621257 49.2586 0.316241C49.1895 0.293648 49.1205 0.271054 49.0515 0.252226C48.4192 0.0677106 47.7688 0.0187576 47.1183 0.014992C45.1743 -7.0483e-05 43.2303 -7.0483e-05 41.2862 0.0112264C40.7521 0.014992 40.2143 0.0601794 39.6801 0.131726C38.6954 0.263523 37.816 0.67021 37.0529 1.33296C36.4607 1.84508 35.981 2.45888 35.5377 3.10656C30.6067 10.329 25.6722 17.5439 20.7412 24.7626C20.3633 25.3124 19.9854 25.8584 19.5276 26.3442C19.2332 26.6567 18.968 27.0032 18.71 27.3496C17.827 28.5471 17.3255 29.8876 17.2347 31.4014C17.1874 32.2073 17.2092 33.0093 17.2637 33.8077C17.3292 34.7754 17.5326 35.7131 17.9433 36.5904C18.2558 37.257 18.6518 37.8708 19.0879 38.4582C19.5675 39.1021 20.0726 39.7272 20.5268 40.3899C25.3851 47.4543 30.2325 54.5223 35.0835 61.5941C35.5849 62.3284 36.0973 63.0514 36.5406 63.8272C37.0529 64.7158 37.8124 65.3108 38.7608 65.6309C39.3822 65.8418 40.0253 65.9623 40.6794 65.9698C42.0965 65.9886 43.5137 65.9736 44.9272 65.9736C46.3662 65.9736 47.8015 65.9849 49.2404 65.9698C49.7164 65.966 50.1815 65.8606 50.6249 65.6572C51.1736 65.405 51.5442 64.9832 51.635 64.3656C51.8204 63.1117 51.5914 61.9594 50.7557 60.9804C50.6321 60.841 50.5195 60.6904 50.4105 60.536Z" fill="black"/>
<path d="M13.1939 3.02432C12.9468 1.61598 12.1946 0.685876 10.8428 0.305548C10.1488 0.109736 9.44024 0.0306579 8.73166 0.019361C7.35812 -0.00323268 5.98094 -0.0069983 4.6074 0.019361C3.98967 0.0306579 3.3683 0.0946734 2.76147 0.211408C1.34432 0.478767 0.439528 1.3185 0.159732 2.81345C0.0434535 3.43854 -0.000151028 4.06364 -0.000151028 4.70003C-0.000151028 23.5808 -0.000151028 42.4616 -0.000151028 61.3425C-0.000151028 61.5458 -0.00378474 61.7491 0.0071164 61.9525C0.0361861 62.5173 0.0906918 63.0822 0.239674 63.632C0.51947 64.6449 1.12993 65.3265 2.10014 65.6541C2.67426 65.8499 3.26292 65.9629 3.86249 65.9704C5.38138 65.993 6.90027 65.9968 8.4228 66.0005C9.17861 66.0005 9.93079 65.9591 10.6684 65.7859C12.1219 65.4432 12.9213 64.5771 13.1866 63.0558C13.2956 62.442 13.3101 61.8245 13.3101 61.1994C13.3101 51.8192 13.3101 42.4353 13.3101 33.0551C13.3101 27.2071 13.3101 21.3591 13.3101 15.5111C13.3101 11.9225 13.3101 8.33385 13.3101 4.74898C13.3174 4.17284 13.292 3.5967 13.1939 3.02432Z" fill="black"/>
<path d="M93.1648 30.4563C92.8341 29.3041 92.1037 28.6037 90.9736 28.3438C90.4577 28.2233 89.9344 28.1631 89.4075 28.1631C86.9039 28.1556 84.4039 28.1518 81.9002 28.1668C81.3552 28.1706 80.8065 28.2158 80.2651 28.2949C79.5892 28.3928 78.9678 28.6451 78.47 29.1572C78.0594 29.579 77.8341 30.1024 77.6924 30.6672C77.5071 31.3978 77.4417 32.1433 77.438 32.8927C77.4308 33.9621 77.4271 35.0353 77.438 36.1048C77.4453 36.9181 77.5216 37.7278 77.7396 38.5185C78.0776 39.7574 78.8479 40.5294 80.0652 40.7817C80.5703 40.8871 81.0863 40.9549 81.5986 40.9662C82.8995 40.9925 84.204 40.9737 85.5085 40.9737C86.3552 40.9737 87.2055 40.9812 88.0521 40.97C88.7752 40.9624 89.4983 40.9436 90.2215 40.9059C90.7193 40.8796 91.1989 40.744 91.6531 40.5218C92.4562 40.1302 92.914 39.4411 93.1648 38.5863C93.3864 37.8219 93.4664 37.0349 93.4773 36.2403C93.4882 35.073 93.4882 33.9057 93.4773 32.7383C93.4627 31.9664 93.3792 31.2019 93.1648 30.4563Z" fill="black"/>
<path d="M201.631 33.9246H205.664V64.4261H201.631V33.9246Z" fill="black"/>
<path d="M210.748 33.9246H223.888C226.486 33.9246 228.59 34.689 230.203 36.2216C231.816 37.7542 232.623 39.9044 232.623 42.6759C232.623 45.0595 231.904 47.1343 230.461 48.9004C229.018 50.6665 226.835 51.5514 223.913 51.5514H214.785V64.4298H210.752V33.9246H210.748ZM226.18 38.1119C225.312 37.6826 224.12 37.468 222.605 37.468H214.781V48.0494H222.605C224.371 48.0494 225.803 47.654 226.904 46.8632C228.005 46.0724 228.553 44.6792 228.553 42.6834C228.553 40.4391 227.761 38.914 226.18 38.1119Z" fill="black"/>
<path d="M235.599 33.9246H257.002V37.6525H239.487V46.9159H255.693V50.4556H239.487V60.8111H257.256V64.4261H235.599V33.9246Z" fill="black"/>
<path d="M263.942 64.4261H259.102L269.542 48.7423L259.8 33.9246H264.771L272.198 45.5942L279.563 33.9246H284.294L274.534 48.7762L284.77 64.4261H279.84L271.998 51.8866L263.942 64.4261Z" fill="black"/>
<path d="M283.797 50.6438H293.862V54.4847H283.797V50.6438Z" fill="black"/>
<path d="M297.957 33.9246H310.719C314.196 33.9246 316.671 34.9902 318.139 37.1178C319 38.3755 319.432 39.829 319.432 41.4746C319.432 43.3989 318.902 44.9729 317.844 46.2042C317.296 46.8557 316.504 47.4507 315.475 47.9891C316.987 48.5841 318.117 49.2582 318.866 50.0037C320.188 51.333 320.85 53.1706 320.85 55.5091C320.85 57.4747 320.25 59.2559 319.051 60.8487C317.259 63.2324 314.411 64.4223 310.504 64.4223H297.957V33.9246ZM309.229 46.803C310.933 46.803 312.259 46.562 313.204 46.08C314.69 45.3231 315.435 43.9562 315.435 41.983C315.435 39.9947 314.643 38.6579 313.063 37.9688C312.169 37.5847 310.842 37.3889 309.084 37.3889H301.882V46.803H309.229ZM310.573 60.8864C313.044 60.8864 314.807 60.1521 315.86 58.6873C316.522 57.7609 316.852 56.6388 316.852 55.3246C316.852 53.1104 315.886 51.6004 313.956 50.7983C312.932 50.369 311.573 50.1544 309.883 50.1544H301.882V60.8864H310.573Z" fill="black"/>
<path d="M335.097 50.9603C335.926 50.8511 336.482 50.4896 336.762 49.8795C336.929 49.5482 337.009 49.0737 337.009 48.4561C337.009 47.1909 336.573 46.2721 335.697 45.6997C334.821 45.1273 333.575 44.8412 331.947 44.8412C330.065 44.8412 328.735 45.3646 327.946 46.4077C327.506 46.9838 327.219 47.8424 327.085 48.9833H323.706C323.771 46.2382 324.629 44.329 326.278 43.2521C327.924 42.1789 329.836 41.6404 332.012 41.6404C334.534 41.6404 336.58 42.145 338.157 43.1579C339.716 44.1671 340.497 45.7261 340.497 47.8235V60.6116C340.497 60.9994 340.573 61.3082 340.73 61.5454C340.886 61.7827 341.209 61.8994 341.707 61.8994C341.867 61.8994 342.049 61.8881 342.252 61.8693C342.452 61.8504 342.67 61.8166 342.899 61.7751V64.5391C342.336 64.7048 341.91 64.8102 341.616 64.8516C341.322 64.8931 340.922 64.9119 340.413 64.9119C339.171 64.9119 338.266 64.4563 337.706 63.5412C337.412 63.0554 337.205 62.3701 337.085 61.4852C336.351 62.4906 335.294 63.3642 333.916 64.1023C332.539 64.8403 331.024 65.2131 329.367 65.2131C327.376 65.2131 325.748 64.5843 324.483 63.3303C323.219 62.0764 322.59 60.5024 322.59 58.6158C322.59 56.5485 323.211 54.9443 324.454 53.8071C325.697 52.6699 327.328 51.9695 329.349 51.7059L335.097 50.9603ZM327.506 61.0823C328.27 61.7036 329.171 62.0161 330.21 62.0161C331.478 62.0161 332.706 61.7111 333.895 61.0973C335.897 60.0844 336.9 58.4275 336.9 56.1267V53.1142C336.46 53.4117 335.893 53.6602 335.199 53.8598C334.505 54.0594 333.825 54.1987 333.161 54.2778L330.984 54.564C329.679 54.741 328.695 55.0234 328.037 55.4112C326.918 56.0627 326.362 57.0982 326.362 58.5254C326.362 59.6099 326.743 60.4609 327.506 61.0823Z" fill="black"/>
<path d="M344.956 42.1712H348.371V45.323C349.385 44.0276 350.461 43.0937 351.598 42.5289C352.732 41.9641 353.996 41.6816 355.384 41.6816C358.429 41.6816 360.486 42.7812 361.554 44.9841C362.143 46.1891 362.434 47.9137 362.434 50.1543V64.426H358.764V50.3953C358.764 49.0359 358.571 47.9439 358.182 47.1117C357.543 45.7259 356.38 45.033 354.698 45.033C353.844 45.033 353.142 45.1234 352.594 45.3042C351.605 45.6092 350.737 46.2192 349.992 47.1342C349.392 47.8685 349 48.6292 348.822 49.4087C348.64 50.1919 348.553 51.3103 348.553 52.7676V64.4297H344.956V42.1712Z" fill="black"/>
<path d="M366.242 33.9246H369.694V51.623L378.931 42.1713H383.531L375.293 50.4443L383.996 64.4261H379.392L372.652 53.1028L369.694 56.0739V64.4261H366.242V33.9246Z" fill="black"/>
</g>
<defs>
<clipPath id="clip0">
<rect width="384" height="66" fill="white"/>
</clipPath>
</defs>
</svg>
