<svg width="498" height="70" viewBox="0 0 498 70" fill="none" xmlns="http://www.w3.org/2000/svg">
<path d="M172.316 0.658691H0V9.58342H172.316V0.658691Z" fill="black"/>
<path d="M0 20.5679V29.4926H83.0686C82.3821 29.7672 67.2787 40.4769 67.2787 40.4769H0V49.4016H54.5095L50.5277 52.1477C42.8387 57.5025 33.914 60.3859 24.5773 60.3859H0V69.3106H24.44C35.6989 69.3106 46.4086 65.878 55.4706 59.5621L70.0248 49.2643H119.317V40.4769H82.794L86.5012 37.8681C94.1902 32.376 103.252 29.4926 112.864 29.4926H172.453V20.5679H0Z" fill="black"/>
<path d="M99.4076 60.2488H66.3174V69.1735H99.4076V60.2488Z" fill="black"/>
<path d="M255.796 9.44702H276.117V60.2493H262.799V19.6075H262.662L246.597 60.2493H235.063L218.999 19.6075H218.862V60.2493H205.543V9.44702H225.864L240.968 45.9698L255.796 9.44702Z" fill="black"/>
<path d="M284.905 9.44653H330.215V19.0578H298.635V30.1794H328.155V39.7906H298.635V60.1115H284.905V9.44653Z" fill="black"/>
<path d="M337.492 9.44653H369.072C386.509 9.44653 394.061 19.607 394.061 34.8477C394.061 50.0884 386.235 60.2488 370.308 60.2488H337.492V9.44653ZM351.222 50.6376H366.6C375.662 50.6376 379.781 45.1455 379.781 34.4358C379.781 25.0991 375.8 19.1951 365.227 19.1951H351.085V50.6376H351.222Z" fill="black"/>
<path d="M401.887 9.44653H423.032C425.229 9.44653 427.288 9.72114 429.348 10.1331C431.27 10.545 433.055 11.3688 434.428 12.3299C435.939 13.291 437.037 14.6641 437.861 16.3117C438.685 17.9594 439.097 20.0189 439.097 22.4904C439.097 25.923 438.135 28.8063 436.213 31.1405C434.291 33.4747 431.682 34.985 428.25 35.5342V35.6715C430.584 35.9461 432.369 36.6326 433.742 37.4565C435.115 38.4176 436.076 39.516 436.762 40.889C437.449 42.2621 437.861 43.7724 437.998 45.4201C438.135 47.0677 438.273 48.7153 438.273 50.363C438.273 51.3241 438.273 52.2852 438.273 53.2464C438.273 54.2075 438.273 55.0313 438.41 55.8551C438.547 56.679 438.685 57.5028 438.822 58.1893C439.097 58.8758 439.371 59.5623 439.646 59.9742H436.213C435.527 58.7385 435.115 57.3655 435.115 55.8551C434.977 54.2075 434.977 52.5598 434.977 50.9122C434.977 49.2646 434.84 47.4796 434.703 45.832C434.566 44.1843 434.154 42.674 433.33 41.301C432.506 39.9279 431.408 38.9668 429.76 38.143C428.112 37.3192 425.778 36.9072 422.757 36.9072H405.045V59.9742H401.887V9.44653ZM423.169 34.4358C424.954 34.4358 426.739 34.1612 428.387 33.7493C430.035 33.3374 431.27 32.6508 432.506 31.6897C433.604 30.7286 434.566 29.4929 435.252 28.1198C435.939 26.6095 436.213 24.9618 436.213 22.9023C436.213 20.98 435.801 19.3324 435.115 18.0967C434.428 16.7236 433.467 15.6252 432.231 14.8014C430.996 13.9776 429.623 13.291 428.112 13.0164C426.602 12.6045 424.954 12.4672 423.169 12.4672H405.045V34.7104H423.169V34.4358Z" fill="black"/>
<path d="M470.951 52.9721H470.814C470.402 54.0705 469.715 55.0317 469.029 56.1301C468.205 57.0912 467.244 57.915 466.145 58.7389C465.047 59.5627 463.674 60.1119 462.164 60.5238C460.653 60.9357 459.143 61.2103 457.358 61.2103C453.513 61.2103 450.493 60.3865 448.296 58.7389C446.099 57.0912 445.138 54.4824 445.138 50.9126C445.138 48.7157 445.55 47.0681 446.374 45.695C447.197 44.322 448.296 43.2236 449.669 42.537C450.905 41.7132 452.415 41.164 454.063 40.8894C455.71 40.6148 457.221 40.3402 458.594 40.2029L462.85 39.791C464.772 39.6537 466.283 39.3791 467.381 39.1045C468.48 38.8298 469.303 38.4179 469.853 37.8687C470.402 37.3195 470.814 36.633 470.951 35.8092C471.088 34.9854 471.226 33.8869 471.226 32.6512C471.226 31.6901 471.088 30.7289 470.676 29.9051C470.264 29.0813 469.715 28.2575 468.891 27.571C468.068 26.8844 467.107 26.3352 465.733 26.0606C464.498 25.6487 462.85 25.5114 461.065 25.5114C457.77 25.5114 455.161 26.3352 453.102 27.9829C451.042 29.6305 449.944 32.102 449.806 35.26H447.06C447.197 31.2782 448.571 28.2575 450.905 26.1979C453.239 24.1384 456.671 23.1772 461.065 23.1772C465.459 23.1772 468.617 24.0011 470.676 25.786C472.736 27.571 473.697 29.7678 473.697 32.5139V53.7959C473.697 54.3451 473.697 54.8944 473.697 55.3063C473.697 55.8555 473.834 56.2674 473.972 56.6793C474.109 57.0912 474.384 57.5031 474.658 57.7777C474.933 58.0523 475.482 58.1896 476.031 58.1896C476.443 58.1896 477.13 58.0523 477.953 57.915V60.2492C477.267 60.3865 476.443 60.5238 475.757 60.5238C474.658 60.5238 473.834 60.3865 473.148 60.1119C472.461 59.8373 472.049 59.4254 471.638 59.0135C471.363 58.6016 471.088 57.915 470.951 57.3658C470.814 56.6793 470.814 55.9928 470.814 55.3063V52.9721H470.951ZM470.951 39.5164C470.264 40.3402 469.303 40.8894 467.93 41.164C466.557 41.4386 465.047 41.7132 463.399 41.8505L458.868 42.2624C457.495 42.3997 456.259 42.6743 454.886 42.8117C453.513 43.0863 452.415 43.4982 451.317 44.1847C450.218 44.7339 449.394 45.695 448.708 46.6562C448.021 47.7546 447.747 49.1276 447.747 50.7753C447.747 53.5213 448.571 55.4436 450.355 56.8166C452.003 58.1896 454.475 58.7389 457.358 58.7389C460.379 58.7389 462.85 58.1896 464.635 57.0912C466.42 55.9928 467.793 54.7571 468.754 53.2467C469.715 51.7364 470.264 50.3633 470.539 48.9903C470.814 47.6173 470.951 46.7935 470.951 46.2442V39.5164Z" fill="black"/>
<path d="M483.308 16.8609V9.44653H486.054V16.7236H483.308V16.8609ZM483.308 60.2488V23.7261H486.054V60.2488H483.308Z" fill="black"/>
<path d="M498 9.44653V60.2488H495.254V9.44653H498Z" fill="black"/>
</svg>
