<svg width="363" height="50" viewBox="0 0 363 50" fill="none" xmlns="http://www.w3.org/2000/svg">
<path d="M125.5 0H0V6.37244H125.5V0Z" fill="white"/>
<path d="M0 14.2155V20.5879H60.5C60 20.784 49 28.4309 49 28.4309H0V34.8033H39.7L36.8 36.7641C31.2 40.5876 24.7 42.6464 17.9 42.6464H0V49.0188H17.8C26 49.0188 33.8 46.5679 40.4 42.0581L51 34.7053H86.9V28.4309H60.3L63 26.5682C68.6 22.6467 75.2 20.5879 82.2 20.5879H125.6V14.2155H0Z" fill="white"/>
<path d="M72.4 42.5483H48.3V48.9208H72.4V42.5483Z" fill="white"/>
<path d="M186.3 6.27441H201.1V42.5483H191.4V13.5292H191.3L179.6 42.5483H171.2L159.5 13.5292H159.4V42.5483H149.7V6.27441H164.5L175.5 32.3524L186.3 6.27441Z" fill="white"/>
<path d="M207.5 6.27441H240.5V13.1371H217.5V21.0781H239V27.9408H217.5V42.4504H207.5V6.27441Z" fill="white"/>
<path d="M245.8 6.27441H268.8C281.5 6.27441 287 13.5292 287 24.4114C287 35.2936 281.3 42.5483 269.7 42.5483H245.8V6.27441ZM255.8 35.6857H267C273.6 35.6857 276.6 31.7642 276.6 24.1173C276.6 17.4507 273.7 13.2351 266 13.2351H255.7V35.6857H255.8Z" fill="white"/>
<path d="M292.7 6.27441H308.1C309.7 6.27441 311.2 6.47049 312.7 6.7646C314.1 7.05872 315.4 7.64694 316.4 8.33321C317.5 9.01947 318.3 9.99985 318.9 11.1763C319.5 12.3528 319.8 13.8233 319.8 15.588C319.8 18.0389 319.1 20.0977 317.7 21.7644C316.3 23.431 314.4 24.5094 311.9 24.9016V24.9996C313.6 25.1957 314.9 25.6859 315.9 26.2741C316.9 26.9604 317.6 27.7447 318.1 28.7251C318.6 29.7054 318.9 30.7838 319 31.9603C319.1 33.1367 319.2 34.3132 319.2 35.4897C319.2 36.1759 319.2 36.8622 319.2 37.5484C319.2 38.2347 319.2 38.8229 319.3 39.4112C319.4 39.9994 319.5 40.5876 319.6 41.0778C319.8 41.568 320 42.0582 320.2 42.3523H317.7C317.2 41.47 316.9 40.4896 316.9 39.4112C316.8 38.2347 316.8 37.0583 316.8 35.8818C316.8 34.7054 316.7 33.4309 316.6 32.2544C316.5 31.078 316.2 29.9995 315.6 29.0192C315 28.0388 314.2 27.3525 313 26.7643C311.8 26.1761 310.1 25.882 307.9 25.882H295V42.3523H292.7V6.27441ZM308.2 24.1173C309.5 24.1173 310.8 23.9212 312 23.6271C313.2 23.333 314.1 22.8428 315 22.1565C315.8 21.4703 316.5 20.5879 317 19.6075C317.5 18.5291 317.7 17.3527 317.7 15.8821C317.7 14.5096 317.4 13.3331 316.9 12.4508C316.4 11.4704 315.7 10.6861 314.8 10.0979C313.9 9.50966 312.9 9.01947 311.8 8.82339C310.7 8.52928 309.5 8.43124 308.2 8.43124H295V24.3134H308.2V24.1173Z" fill="white"/>
<path d="M343 37.3524H342.9C342.6 38.1367 342.1 38.823 341.6 39.6073C341 40.2935 340.3 40.8818 339.5 41.47C338.7 42.0582 337.7 42.4504 336.6 42.7445C335.5 43.0386 334.4 43.2347 333.1 43.2347C330.3 43.2347 328.1 42.6465 326.5 41.47C324.9 40.2935 324.2 38.4308 324.2 35.8818C324.2 34.3132 324.5 33.1368 325.1 32.1564C325.7 31.176 326.5 30.3917 327.5 29.9015C328.4 29.3133 329.5 28.9211 330.7 28.7251C331.9 28.529 333 28.3329 334 28.2349L337.1 27.9408C338.5 27.8427 339.6 27.6467 340.4 27.4506C341.2 27.2545 341.8 26.9604 342.2 26.5682C342.6 26.1761 342.9 25.6859 343 25.0977C343.1 24.5094 343.2 23.7251 343.2 22.8428C343.2 22.1565 343.1 21.4703 342.8 20.882C342.5 20.2938 342.1 19.7056 341.5 19.2154C340.9 18.7252 340.2 18.3331 339.2 18.137C338.3 17.8429 337.1 17.7448 335.8 17.7448C333.4 17.7448 331.5 18.3331 330 19.5095C328.5 20.686 327.7 22.4506 327.6 24.7055H325.6C325.7 21.8624 326.7 19.7056 328.4 18.235C330.1 16.7645 332.6 16.0782 335.8 16.0782C339 16.0782 341.3 16.6664 342.8 17.9409C344.3 19.2154 345 20.784 345 22.7448V37.9406C345 38.3328 345 38.7249 345 39.0191C345 39.4112 345.1 39.7053 345.2 39.9994C345.3 40.2935 345.5 40.5877 345.7 40.7837C345.9 40.9798 346.3 41.0778 346.7 41.0778C347 41.0778 347.5 40.9798 348.1 40.8818V42.5484C347.6 42.6465 347 42.7445 346.5 42.7445C345.7 42.7445 345.1 42.6465 344.6 42.4504C344.1 42.2543 343.8 41.9602 343.5 41.6661C343.3 41.372 343.1 40.8818 343 40.4896C342.9 39.9994 342.9 39.5092 342.9 39.0191V37.3524H343ZM343 27.7447C342.5 28.3329 341.8 28.7251 340.8 28.9211C339.8 29.1172 338.7 29.3133 337.5 29.4113L334.2 29.7055C333.2 29.8035 332.3 29.9996 331.3 30.0976C330.3 30.2937 329.5 30.5878 328.7 31.078C327.9 31.4701 327.3 32.1564 326.8 32.8427C326.3 33.627 326.1 34.6073 326.1 35.7838C326.1 37.7446 326.7 39.1171 328 40.0975C329.2 41.0778 331 41.47 333.1 41.47C335.3 41.47 337.1 41.0778 338.4 40.2935C339.7 39.5092 340.7 38.6269 341.4 37.5485C342.1 36.4701 342.5 35.4897 342.7 34.5093C342.9 33.5289 343 32.9407 343 32.5486V27.7447Z" fill="white"/>
<path d="M352 11.5684V6.27441H354V11.4704H352V11.5684ZM352 42.5483V16.4703H354V42.5483H352Z" fill="white"/>
<path d="M362.7 6.27441V42.5483H360.7V6.27441H362.7Z" fill="white"/>
</svg>
