<?xml version="1.0" encoding="utf-8"?>
<!-- Generator: Adobe Illustrator 24.2.3, SVG Export Plug-In . SVG Version: 6.00 Build 0)  -->
<svg version="1.1" id="Layer_1" xmlns="http://www.w3.org/2000/svg" xmlns:xlink="http://www.w3.org/1999/xlink" x="0px" y="0px"
	 viewBox="0 0 126 50" style="enable-background:new 0 0 126 50;" xml:space="preserve">
<path d="M125.5,0H0v6.5h125.5V0z"/>
<path d="M0,14.5V21h60.5C60,21.2,49,29,49,29H0v6.5h39.7l-2.9,2c-5.6,3.9-12.1,6-18.9,6H0V50h17.8c8.2,0,16-2.5,22.6-7.1L51,35.4
	h35.9V29H60.3l2.7-1.9c5.6-4,12.2-6.1,19.2-6.1h43.4v-6.5H0z"/>
<path d="M72.4,43.4H48.3v6.5h24.1V43.4z"/>
</svg>
