<svg width="299" height="96" viewBox="0 0 299 96" fill="none" xmlns="http://www.w3.org/2000/svg">
<g clip-path="url(#clip0)">
<path d="M126.147 52.9831C122.729 50.8544 119.322 48.6925 115.775 46.7958C110.7 44.0815 105.445 41.6949 100.37 38.9769C95.9797 36.6235 91.5159 34.2885 88.2418 30.3515C82.2497 23.1403 84.2421 14.7948 92.9228 11.2297C97.0367 9.54289 101.405 8.5706 105.868 9.06411C116.007 10.1911 124.585 13.5794 127.476 24.7645C127.697 25.6263 128.809 26.256 130.481 28.0275C131.432 21.8107 130.614 16.6841 131.185 11.7195C132.039 11.5022 132.57 11.2518 133.104 11.2518C142.333 11.226 151.566 11.1155 160.792 11.3033C163.422 11.3586 166.147 11.9994 168.637 12.8944C183.633 18.2935 183.122 36.4467 176.176 43.7942C172.025 48.1842 167.016 49.8931 161.252 50.0589C157.838 50.1546 154.417 50.0773 150.837 50.0773C151.526 52.8468 152.914 53.7823 155.135 53.8265C157.039 53.8633 158.976 53.9554 160.836 54.3311C166.313 55.4359 169.903 59.2404 172.927 63.5052C176.584 68.665 179.91 74.0568 183.383 79.3455C186.521 84.126 189.257 89.2158 193.658 92.9466C205.764 92.9466 217.682 93.1271 229.593 92.8766C236.362 92.733 242.918 90.9615 248.965 87.8863C261.395 81.5627 268.44 71.2136 269.877 57.5205C271.645 40.6784 266.209 26.547 252.129 16.3968C243.592 10.239 233.791 7.78245 223.394 7.73457C191.091 7.58357 158.788 7.60935 126.485 7.38838C120.946 7.35155 115.4 6.56708 109.883 5.90416C102.079 4.96501 94.407 5.49903 87.4389 9.16355C77.6276 14.316 74.103 21.1405 75.2484 31.1175C76.055 38.1446 80.0436 43.1939 85.7706 46.7958C91.1182 50.162 96.8267 52.9573 102.333 56.0768C107.504 59.0047 112.77 61.8074 117.698 65.1073C119.992 66.6468 121.959 69.0039 123.406 71.3941C126.194 75.9978 125.41 81.2165 121.826 85.1977C119.469 87.8126 116.766 90.0666 113.142 90.4606C105.533 91.2819 97.9132 92.1622 90.2748 92.4457C87.1259 92.5636 83.8665 91.3814 80.7507 90.4717C75.3037 88.877 71.617 85.0099 68.6191 80.4136C64.3322 73.8322 60.2478 67.1072 55.7473 60.6731C53.3865 57.2995 50.3297 54.4084 47.4128 51.1048C49.7588 49.9189 51.836 48.965 53.8174 47.8491C65.0172 41.5329 67.3559 26.1382 58.6752 16.7025C52.7972 10.3163 45.2693 7.93345 36.9606 7.76404C26.1991 7.54306 15.4265 7.69774 4.65763 7.71984C3.38333 7.72353 2.10904 7.90767 0.80896 8.01448C1.29879 11.1523 3.3686 11.2444 5.61519 11.2334C13.5003 11.1928 21.3818 11.1487 29.267 11.2591C31.7346 11.296 34.2316 11.6532 36.6513 12.1615C52.4916 15.4798 53.8984 31.4674 48.967 41.1204C47.9689 43.076 46.1164 44.7039 44.3928 46.1697C40.8609 49.1823 36.4745 49.9042 32.0034 50.0552C28.593 50.1693 25.1752 50.0773 21.6286 50.0773C22.4167 53.5761 24.5528 53.9002 27.0425 53.8228C32.8247 53.6423 37.572 55.9405 41.1039 60.3969C44.1939 64.2971 46.9598 68.4514 49.8509 72.5063C52.4105 76.0935 54.6755 79.9348 57.5482 83.2531C64.0707 90.7958 71.9227 95.7641 82.4891 95.4142C91.1329 95.1269 99.7915 95.2779 108.443 95.2816C114.586 95.2816 120.195 93.4254 125.311 90.2065C140.639 80.5646 140.83 62.1278 126.147 52.9831ZM186.992 11.2223C197.743 11.2039 208.497 11.0713 219.24 11.2849C223.221 11.3623 227.302 11.8521 231.14 12.887C241.176 15.5866 248.424 21.8328 252.427 31.449C258.309 45.5694 258.71 59.8739 251.635 73.5781C246.284 83.9382 237.242 89.7793 225.313 90.4275C221.1 90.6558 216.868 90.4385 212.648 90.549C207.819 90.6779 204.092 88.6302 201.293 84.892C198.542 81.2165 195.765 77.5262 193.404 73.6039C188.661 65.7224 183.928 57.8704 176.223 51.3626C198.258 43.3633 196.977 20.7022 181.785 11.447C183.869 11.3586 185.431 11.226 186.992 11.2223Z" fill="#466466"/>
<path d="M283.286 24.9116C286.093 24.326 288.991 24.1124 291.739 23.3426C295.064 22.4108 297.687 20.3705 298 16.6544C298.257 13.616 298.254 10.5223 297.97 7.48759C297.657 4.12875 295.609 1.75326 292.324 0.979845C286.859 -0.305499 281.309 -0.368109 275.847 1.06455C272.79 1.86375 270.974 4.06614 270.459 7.15981C270.208 8.65508 270.256 10.2093 270.3 11.7303C270.315 12.2386 270.727 12.7321 271.018 13.3582C271.983 13.4134 272.926 13.535 273.862 13.4945C274.396 13.4724 274.915 13.1888 275.541 12.9899C275.961 11.13 276.013 9.10808 276.867 7.52074C278.543 4.40497 290.251 4.36814 291.407 7.63122C292.361 10.3198 292.21 13.6602 291.654 16.5366C291.219 18.7868 288.56 18.9194 286.413 19.2582C282.642 19.8512 278.815 20.3963 275.191 21.5269C271.339 22.7313 269.442 26.2595 270.562 29.5778C271.586 32.6052 273.026 35.4963 274.23 38.3248C282.27 38.3248 289.882 38.3248 298.077 38.3248C297.989 36.5054 297.915 34.9844 297.823 33.0398C290.38 33.0398 283.537 33.0398 276.193 33.0398C276.307 30.76 276.399 28.9591 276.513 26.6462C278.963 26.0091 281.102 25.3646 283.286 24.9116Z" fill="#466466"/>
</g>
<defs>
<clipPath id="clip0">
<rect width="297.375" height="95.4322" fill="white" transform="translate(0.812622)"/>
</clipPath>
</defs>
</svg>
