<svg width="149" height="142" viewBox="0 0 149 142" fill="none" xmlns="http://www.w3.org/2000/svg">
<path d="M148.644 75.3538C147.079 75.3538 145.556 75.3538 144.033 75.3538C142.878 75.3538 141.723 75.395 140.567 75.3435C139.801 75.3126 139.538 75.5393 139.549 76.3224C139.591 80.1247 139.559 83.9269 139.559 87.7292C139.559 88.0589 139.559 88.3887 139.559 88.842C138.047 88.842 136.618 88.873 135.19 88.8008C134.99 88.7905 134.728 88.3062 134.644 87.9971C133.741 84.4627 132.879 80.9284 131.997 77.3837C131.493 75.3435 131.493 75.3435 129.308 75.3435C92.6749 75.3435 56.0519 75.3435 19.4184 75.3435C19.3554 75.3435 19.2924 75.3538 19.2294 75.3435C18.2106 75.1786 17.7905 75.5187 17.6119 76.6006C16.9923 80.4132 16.2151 84.1948 15.5219 87.9868C15.4379 88.4402 15.3328 88.6978 14.7867 88.6875C13.0748 88.6566 11.3523 88.6772 9.50383 88.6772C9.50383 84.2464 9.50383 79.8568 9.50383 75.3538C6.38452 75.3538 3.40175 75.3538 0.355957 75.3538C0.355957 65.8636 0.355957 56.4661 0.355957 47.0068C49.7713 47.0068 99.1656 47.0068 148.644 47.0068C148.644 56.4146 148.644 65.8327 148.644 75.3538ZM90.984 51.7777C90.984 58.4033 90.984 64.792 90.984 71.1806C92.4543 71.1806 93.8512 71.1806 95.3846 71.1806C95.3846 69.1919 95.3846 67.2547 95.3846 65.2659C95.8572 65.2659 96.2143 65.3072 96.5399 65.2556C97.5272 65.1011 98.1363 65.4926 98.6825 66.317C99.6802 67.8317 100.794 69.2743 101.896 70.7272C102.064 70.9436 102.358 71.1909 102.61 71.2012C104.186 71.2424 105.772 71.2218 107.547 71.2218C105.929 68.9549 104.417 66.8425 102.905 64.7301C104.879 63.3597 105.425 62.659 105.583 60.7218C105.698 59.2895 105.73 57.8366 105.593 56.4043C105.341 53.8282 104.123 52.3753 101.508 52.1383C98.0313 51.8189 94.5234 51.8807 90.984 51.7777ZM76.4167 71.1806C76.4167 69.1919 76.4167 67.2753 76.4167 65.2556C76.8998 65.2556 77.2674 65.2969 77.6245 65.2453C78.6118 65.1011 79.2104 65.5133 79.7461 66.3273C80.7228 67.8214 81.8256 69.2331 82.8969 70.6654C83.0544 70.8715 83.2855 71.1806 83.485 71.1806C85.1444 71.2218 86.7934 71.2012 88.5998 71.2012C86.9824 68.9343 85.47 66.8322 83.9261 64.6683C85.6276 63.844 86.5623 62.5044 86.6358 60.7321C86.7094 59.0628 86.6148 57.3729 86.5413 55.6933C86.5203 55.2811 86.3313 54.8587 86.1422 54.4774C85.1655 52.4887 83.296 51.9838 81.311 51.922C78.4122 51.8189 75.503 51.8704 72.6042 51.8704C72.4046 51.8704 72.1946 51.9323 72.016 51.9632C72.016 58.393 72.016 64.7507 72.016 71.16C73.4549 71.1806 74.8518 71.1806 76.4167 71.1806ZM55.3272 51.9529C55.3272 52.5917 55.3272 53.1688 55.3272 53.7458C55.3272 57.4862 55.3272 61.2267 55.3272 64.9671C55.3272 65.8327 55.3167 66.7395 54.424 67.2341C53.1637 67.9244 51.8193 67.9347 50.5485 67.3268C49.4457 66.8013 49.4562 65.709 49.4562 64.6786C49.4562 60.7527 49.4562 56.8268 49.4562 52.9009C49.4562 52.5814 49.4562 52.262 49.4562 51.9426C47.9123 51.9426 46.5154 51.9426 45.1081 51.9426C45.0766 52.1074 45.045 52.2208 45.045 52.3444C45.0345 56.9092 44.982 61.4843 45.0556 66.0491C45.0871 68.3778 46.3264 70.0883 48.532 70.9539C50.769 71.8194 53.1216 71.871 55.4322 71.2218C58.436 70.3769 59.7804 68.5324 59.7804 65.4823C59.7804 61.2782 59.7804 57.0844 59.7804 52.8803C59.7804 52.5814 59.7804 52.2826 59.7804 51.9426C58.2785 51.9529 56.8816 51.9529 55.3272 51.9529ZM63.7714 51.9529C63.7714 58.4239 63.7714 64.8023 63.7714 71.1909C65.2418 71.1909 66.6386 71.1909 68.0775 71.1909C68.0775 64.761 68.0775 58.3724 68.0775 51.9529C66.6281 51.9529 65.2313 51.9529 63.7714 51.9529Z" fill="#466466"/>
<path d="M148.465 141.126C125.759 141.126 103.115 141.126 80.4182 141.126C80.4182 122.63 80.4182 104.185 80.4182 85.5958C80.8068 85.5958 81.1954 85.5958 81.584 85.5958C96.4559 85.5958 111.338 85.6061 126.21 85.5752C127.04 85.5752 127.386 85.8328 127.67 86.5747C134.497 104.494 141.355 122.393 148.203 140.302C148.297 140.549 148.36 140.817 148.465 141.126ZM107.872 119.683C107.83 119.899 107.799 119.961 107.809 120.023C108.629 124.505 109.437 128.987 110.277 133.47C110.32 133.666 110.603 133.964 110.782 133.964C112.956 133.995 115.14 133.985 117.346 133.985C117.346 133.748 117.367 133.624 117.346 133.511C116.401 129.08 115.455 124.66 114.479 120.239C114.426 120.023 114.09 119.714 113.88 119.714C111.884 119.662 109.889 119.683 107.872 119.683ZM111.496 107.142C111.517 106.926 111.548 106.833 111.538 106.74C110.666 102.65 109.784 98.5484 108.891 94.4576C108.86 94.2927 108.576 94.066 108.398 94.066C106.654 94.0351 104.911 94.0454 103.178 94.0454C103.146 94.2309 103.115 94.3236 103.125 94.3957C103.871 98.4866 104.617 102.577 105.383 106.658C105.415 106.843 105.73 107.101 105.919 107.101C107.746 107.153 109.584 107.142 111.496 107.142Z" fill="#466466"/>
<path d="M64.9687 85.6165C66.25 85.6165 67.3633 85.6165 68.5816 85.6165C68.5816 88.4089 68.5816 91.1498 68.5816 93.9628C69.2853 93.9937 69.8945 94.0247 70.5667 94.0453C70.5667 98.4142 70.5667 102.721 70.5667 107.039C70.4616 107.09 70.3881 107.152 70.3041 107.152C68.6131 107.276 68.6131 107.276 68.6131 108.924C68.6131 112.448 68.6131 115.972 68.6131 119.61C69.2748 119.641 69.8735 119.672 70.5561 119.703C70.5561 124.484 70.5561 129.254 70.5561 134.108C69.9575 134.139 69.3483 134.17 68.6657 134.2C68.6657 136.519 68.6657 138.776 68.6657 141.104C67.3213 141.104 66.061 141.104 64.7271 141.104C64.7271 138.796 64.7271 136.519 64.7271 134.149C64.3595 134.149 64.055 134.149 63.7504 134.149C47.6497 134.149 31.5596 134.149 15.4589 134.139C14.6922 134.139 14.3246 134.304 14.1146 135.107C13.6524 136.921 13.0223 138.683 12.4971 140.476C12.3501 140.991 12.119 141.218 11.5309 141.187C10.4071 141.135 9.28331 141.166 8.02298 141.166C8.74767 138.827 9.44085 136.57 10.176 134.19C8.46409 134.19 6.88869 134.19 5.20825 134.19C5.27127 133.891 5.28177 133.685 5.35529 133.51C7.01472 129.121 8.69515 124.741 10.3336 120.341C10.5331 119.806 10.8062 119.63 11.3523 119.651C12.2871 119.692 13.2323 119.692 14.1671 119.641C14.4296 119.62 14.8392 119.393 14.9128 119.167C16.1416 115.344 17.3284 111.511 18.5257 107.678C18.5572 107.564 18.5362 107.441 18.5467 107.214C17.5489 107.214 16.6037 107.214 15.4694 107.214C15.8265 106.245 16.1311 105.431 16.4357 104.628C17.6645 101.392 18.9248 98.1566 20.1221 94.9005C20.3742 94.2204 20.6893 93.8495 21.4454 94.004C22.5482 94.2204 22.9999 93.7464 23.2834 92.6851C23.8506 90.5213 24.6173 88.4192 25.2684 86.2759C25.426 85.7504 25.678 85.5444 26.2557 85.5753C27.2114 85.6268 28.1777 85.5856 29.2805 85.5856C28.4193 88.3986 27.6 91.1086 26.7388 93.9216C27.0749 93.9525 27.3375 93.9937 27.6 93.9937C39.7307 93.9937 51.8508 93.9937 63.9814 94.0144C64.7691 94.0144 65.0002 93.7877 64.9792 93.0252C64.9372 90.9128 64.9582 88.7902 64.9687 86.6778C64.9687 86.3481 64.9687 86.0183 64.9687 85.6165ZM18.8723 119.6C34.2273 119.6 49.4667 119.6 64.7691 119.6C64.7691 115.457 64.7691 111.367 64.7691 107.173C64.3911 107.173 64.0655 107.173 63.7294 107.173C54.0459 107.173 44.3519 107.173 34.6684 107.173C30.9504 107.173 27.2324 107.173 23.5145 107.173C23.0629 107.173 22.6848 107.152 22.5167 107.729C21.3194 111.645 20.1116 115.571 18.8723 119.6Z" fill="#466466"/>
<path d="M113.25 38.0836C112.241 38.0836 111.338 38.0836 110.446 38.0836C107.074 38.0836 103.692 38.0527 100.321 38.1042C99.5122 38.1145 99.2706 37.8363 99.1446 37.0944C98.8295 35.1985 98.4094 33.3129 98.0313 31.3757C96.4979 31.3757 95.017 31.3757 93.4206 31.3757C93.7777 33.5808 94.1348 35.7652 94.5024 38.0321C94.1453 38.0527 93.8722 38.0836 93.5992 38.0836C89.5031 38.0836 85.407 38.0733 81.311 38.0939C80.6178 38.0939 80.3342 37.9703 80.3342 37.1975C80.3552 25.08 80.3552 12.9727 80.3552 0.855233C80.3552 0.61824 80.3867 0.370944 80.4077 0.061824C80.7438 0.041216 81.0484 0.020608 81.3425 0.020608C87.287 0.020608 93.2211 0.030912 99.1551 0C99.8798 0 100.153 0.236992 100.384 0.896449C104.617 13.1273 108.881 25.3479 113.124 37.5684C113.166 37.6715 113.176 37.7951 113.25 38.0836ZM90.7949 14.982C90.7529 15.1057 90.7319 15.1366 90.7319 15.1675C91.11 17.6095 91.4881 20.0516 91.8872 22.4936C91.9082 22.6276 92.1078 22.8337 92.2338 22.844C93.5887 22.8646 94.9435 22.8646 96.3614 22.8646C95.8257 20.1443 95.3321 17.5786 94.828 14.9923C93.4311 14.982 92.1288 14.982 90.7949 14.982ZM93.6727 9.12935C93.2841 7.09946 92.927 5.18292 92.5384 3.26637C92.4964 3.0809 92.2653 2.79239 92.1078 2.78208C90.963 2.74087 89.8287 2.76147 88.5684 2.76147C88.9465 4.97684 89.293 7.03764 89.6501 9.12935C91.0155 9.12935 92.2863 9.12935 93.6727 9.12935Z" fill="#466466"/>
<path d="M70.5456 22.7817C70.4301 22.8229 70.3671 22.8538 70.3041 22.8641C68.4451 23.0187 68.4451 23.0187 68.4451 24.8425C68.4451 26.9549 68.4451 29.0569 68.4451 31.2826C69.2643 31.2826 69.8945 31.2826 70.5876 31.2826C70.5876 33.5495 70.5876 35.7133 70.5876 37.9287C59.6438 37.9287 48.763 37.9287 37.6826 37.9287C38.4493 35.6721 39.195 33.5083 39.9302 31.3547C40.1508 31.3341 40.3083 31.3135 40.4553 31.3135C42.5979 31.262 42.6084 31.262 43.2281 29.2939C43.8792 27.2228 44.5304 25.1619 45.2131 22.9569C44.4254 22.926 43.7637 22.895 43.039 22.8538C43.081 22.5756 43.081 22.3695 43.144 22.1738C43.9107 19.9687 44.7089 17.7842 45.4546 15.5791C45.6437 15.033 45.9693 14.8372 46.4839 14.9403C47.4922 15.1361 47.9018 14.6724 48.1328 13.745C48.5004 12.2715 49.0151 10.829 49.5087 9.24213C48.8785 9.24213 48.3639 9.24213 47.6917 9.24213C47.8598 8.74753 47.9753 8.38689 48.1013 8.02625C48.637 6.49094 49.1831 4.95563 49.6872 3.42032C49.8448 2.94633 50.0653 2.66812 50.6115 2.77116C51.3362 2.90512 51.6512 2.57538 51.8508 1.90562C52.4284 0.0199707 52.4599 0.0302746 54.445 0.0302746C54.7495 0.0302746 55.0541 0.0302746 55.4322 0.0302746C55.1591 0.978251 54.9176 1.82319 54.6655 2.72995C58.2259 2.72995 61.6813 2.72995 65.2628 2.72995C65.2628 1.8644 65.2628 1.01947 65.2628 0.102403C66.355 0.102403 67.3318 0.102403 68.4241 0.102403C68.4241 0.730953 68.4556 1.33889 68.4136 1.94684C68.3716 2.58569 68.6131 2.85359 69.2748 2.78147C69.6739 2.74025 70.073 2.77116 70.5351 2.77116C70.5351 4.92472 70.5351 6.99584 70.5351 9.19061C69.863 9.19061 69.2013 9.19061 68.4766 9.19061C68.4766 11.1381 68.4766 12.9619 68.4766 14.8888C69.1593 14.8888 69.7999 14.8888 70.5141 14.8888C70.5456 17.5575 70.5456 20.1439 70.5456 22.7817ZM65.1472 22.9775C65.0002 22.9363 64.9057 22.895 64.8216 22.895C59.5703 22.8847 54.3294 22.8744 49.0781 22.9157C48.8155 22.9157 48.4059 23.2969 48.3114 23.5751C47.6917 25.4299 47.1351 27.3155 46.5679 29.1908C46.3684 29.8503 46.1793 30.5201 45.9588 31.2414C52.4284 31.2414 58.7616 31.2414 65.1472 31.2414C65.1472 28.4696 65.1472 25.7596 65.1472 22.9775ZM65.2523 14.8785C65.2523 13.2401 65.1787 11.7151 65.2838 10.1901C65.3363 9.39669 65.1892 9.17 64.3805 9.1803C60.9777 9.21122 57.5748 9.19061 54.1719 9.19061C52.691 9.19061 52.691 9.19061 52.2499 10.592C51.8088 12.0036 51.3887 13.4153 50.9371 14.8785C55.7683 14.8785 60.4315 14.8785 65.2523 14.8785Z" fill="#466466"/>
<path d="M95.3951 61.4525C95.3951 59.5364 95.3951 57.713 95.3951 55.8381C96.834 55.8381 98.2309 55.7866 99.6277 55.8587C100.604 55.9102 101.151 56.518 101.193 57.4864C101.224 58.1869 101.245 58.8977 101.193 59.5982C101.109 60.8653 100.625 61.3701 99.3231 61.4422C98.0523 61.504 96.771 61.4525 95.3951 61.4525Z" fill="#466466"/>
<path d="M76.4272 55.7867C77.8031 55.7867 79.0844 55.7352 80.3553 55.797C81.6891 55.8589 82.1828 56.405 82.2668 57.7034C82.2878 58.1053 82.2773 58.4969 82.2773 58.8987C82.2668 60.97 81.7626 61.4646 79.6831 61.4749C78.6223 61.4852 77.5615 61.4749 76.4272 61.4749C76.4272 59.5892 76.4272 57.7446 76.4272 55.7867Z" fill="#466466"/>
</svg>
