<svg width="251" height="91" viewBox="0 0 251 91" fill="none" xmlns="http://www.w3.org/2000/svg">
<g clip-path="url(#clip0)">
<path d="M11.6487 90.8525C7.72447 60.4006 3.89115 30.6602 0 0.464708C10.4342 0.464708 20.1663 0.464708 30.5757 0.464708C32.575 15.6948 34.5825 30.9911 36.7801 47.7268C38.3332 45.5345 39.3163 44.3598 40.0764 43.0527C47.553 30.1059 55.0875 17.1922 62.3824 4.14607C64.1007 1.07689 66.067 -0.0895648 69.6194 0.00970796C79.0375 0.266162 88.4721 0.100708 98.5924 0.100708C97.8075 1.82144 97.3284 3.15334 96.6344 4.36943C80.9294 31.8266 65.15 59.2342 49.5523 86.7492C47.8091 89.8267 45.9173 91.0345 42.3648 90.9435C32.3684 90.7036 22.3638 90.8525 11.6487 90.8525Z" fill="#466466"/>
<path d="M162.9 90.67C151.829 90.67 141.907 90.67 131.704 90.67C130.688 83.4892 129.713 76.5484 128.664 69.0781C123.286 69.0781 118.106 68.8134 112.984 69.2271C111.299 69.3677 109.283 70.9478 108.234 72.4451C104.714 77.4584 101.748 82.8688 98.1545 87.8241C97.0392 89.3629 94.6104 90.761 92.735 90.8189C83.1269 91.1167 73.5106 90.9595 62.8781 90.9595C65.7613 85.7973 68.2811 81.2142 70.8669 76.656C75.8816 67.829 81.1277 59.1261 85.8615 50.1501C87.8029 46.4688 89.9344 44.9632 94.2469 45.1203C104.4 45.4926 114.57 45.2361 125.599 45.2361C123.848 30.1053 122.162 15.5784 120.419 0.546875C130.746 0.546875 140.643 0.546875 151.218 0.546875C155.068 30.3121 158.942 60.2181 162.9 90.67Z" fill="#466466"/>
<path d="M165.246 0.380577C184.148 0.380577 202.58 0.364032 221.003 0.413668C222.126 0.413668 223.241 0.93485 224.357 1.20785C241.251 5.35249 252.661 21.2609 250.802 38.0877C248.827 55.9319 234.642 68.9946 216.69 69.2097C202.679 69.3751 188.667 69.2428 174.35 69.2428C173.35 61.4416 172.417 54.1368 171.376 46.0129C183.033 46.0129 194.136 46.0626 205.24 45.9799C207.908 45.9633 210.676 45.8971 213.22 45.1939C218.161 43.8372 221.201 40.3792 221.217 35.2088C221.234 30.0714 218.4 26.5472 213.352 25.1657C211.353 24.6197 209.205 24.3963 207.123 24.3798C195.764 24.3053 184.413 24.2391 173.053 24.4046C169.699 24.4542 168.336 23.478 168.005 19.9869C167.41 13.559 166.237 7.17249 165.246 0.380577Z" fill="#466466"/>
</g>
<defs>
<clipPath id="clip0">
<rect width="251" height="91" fill="white"/>
</clipPath>
</defs>
</svg>
