<?xml version="1.0" encoding="utf-8"?>
<!-- Generator: Adobe Illustrator 24.2.3, SVG Export Plug-In . SVG Version: 6.00 Build 0)  -->
<svg version="1.1" id="Layer_1" xmlns="http://www.w3.org/2000/svg" xmlns:xlink="http://www.w3.org/1999/xlink" x="0px" y="0px"
	 viewBox="0 0 73 73" style="enable-background:new 0 0 73 73;" xml:space="preserve">
<path d="M43.3,11.2h-3.5v3.5h3.5V11.2z"/>
<path d="M21.1,33.6h-3.5v3.5h3.5V33.6z"/>
<path d="M36.4,19.9l-2.5,2.5l2.5,2.5l2.5-2.5L36.4,19.9z"/>
<path d="M23.3,57.9l-2.5,2.5l2.5,2.5l2.5-2.5L23.3,57.9z"/>
<path d="M36.5,31.8H33v3.5h3.5V31.8z"/>
<path d="M56.9,36.6h-3.5v3.5h3.5V36.6z"/>
<path d="M25.1,45.8h-3.5v3.5h3.5V45.8z"/>
<path d="M45.3,32.9l-2.5,2.5l2.5,2.5l2.5-2.5L45.3,32.9z"/>
<path d="M11.5,40.1L9,42.6l2.5,2.5l2.5-2.5L11.5,40.1z"/>
<path d="M64.5,23.8H61v3.5h3.5V23.8z"/>
<path d="M13.2,56.1H9.7v3.5h3.5V56.1z"/>
<path d="M55.2,10.5L52.7,13l2.5,2.5l2.5-2.5L55.2,10.5z"/>
<path d="M34.7,51.6l-2.5,2.5l2.5,2.5l2.5-2.5L34.7,51.6z"/>
<path d="M52.7,22h-3.5v3.6h3.5V22z"/>
<path d="M73,25.5C73,11.5,61.5,0,47.5,0C34.5,0,23.8,9.7,22.1,22.1c-5.9,0.8-11.4,3.7-15.5,8.1C2.4,35,0,41.1,0,47.4
	C0,61.5,11.5,73,25.5,73c6.4,0,12.6-2.4,17.3-6.8c4.4-4.1,7.2-9.5,8-15.4C63.3,49.2,73,38.5,73,25.5z M40.9,64.1
	c-4.2,3.9-9.6,6-15.3,6c-12.5,0-22.6-10.2-22.6-22.6c0-5.6,2.1-11,5.9-15.2c3.5-3.8,8.1-6.3,13.1-7.1c0,0.1,0,0.3,0,0.5
	c0,14.1,11.5,25.5,25.6,25.5c0.1,0,0.3,0,0.5,0C47.1,56.1,44.6,60.6,40.9,64.1z M47.5,48.2C35,48.2,24.8,38,24.8,25.5
	S35,2.9,47.5,2.9s22.6,10.2,22.6,22.6S59.9,48.2,47.5,48.2z"/>
</svg>
