<svg width="344" height="78" fill="none" xmlns="http://www.w3.org/2000/svg"><path d="M73.892.054V26.31h-2.056c-2.483-7.177-6.204-12.634-11.167-16.37-4.964-3.735-10.389-5.602-16.277-5.602-5.631 0-10.316 1.566-14.058 4.696-3.742 3.13-6.389 7.5-7.944 13.1a64.184 64.184 0 00-2.335 17.246c0 7.141.852 13.404 2.556 18.785 1.704 5.384 4.453 9.338 8.249 11.866 3.796 2.527 8.307 3.789 13.528 3.789 1.813 0 3.677-.194 5.584-.577a40.215 40.215 0 005.863-1.674v-15.49c0-2.93-.203-4.826-.613-5.686-.41-.86-1.25-1.639-2.527-2.334-1.276-.695-2.824-1.043-4.637-1.043h-1.944v-2.033h36.61v2.033c-2.776.183-4.713.56-5.804 1.126-1.091.566-1.936 1.509-2.527 2.828-.334.695-.5 2.398-.5 5.108v15.49a74.853 74.853 0 01-15.03 4.808c-5.203 1.08-10.602 1.62-16.193 1.62-7.15 0-13.083-.96-17.807-2.882-4.721-1.921-8.89-4.449-12.499-7.582-3.611-3.13-6.436-6.653-8.473-10.575C1.294 51.909 0 46.249 0 39.989c0-11.206 3.981-20.67 11.944-28.4C19.91 3.866 29.928 0 42.002 0c3.742 0 7.11.294 10.113.878 1.628.294 4.268 1.126 7.915 2.499 3.648 1.373 5.805 2.061 6.473 2.061 1.037 0 2.001-.373 2.89-1.125.888-.75 1.704-2.17 2.443-4.26h2.056zm88.338 0v25.818h-2.168c-1.632-6.736-4.667-11.902-9.112-15.49-4.445-3.589-9.482-5.385-15.113-5.385-4.703 0-9.021 1.337-12.944 4.012-3.927 2.674-6.799 6.17-8.612 10.493-2.335 5.531-3.499 11.683-3.499 18.455 0 6.664.852 12.737 2.556 18.207 1.705 5.474 4.37 9.611 7.999 12.415 3.63 2.8 8.332 4.201 14.112 4.201 4.739 0 9.083-1.025 13.028-3.076 3.945-2.05 8.1-5.585 12.473-10.6v6.428c-4.22 4.359-8.622 7.517-13.195 9.475-4.575 1.957-9.916 2.94-16.03 2.94-8.038 0-15.178-1.593-21.418-4.78-6.24-3.186-11.055-7.764-14.445-13.733-3.39-5.969-5.084-12.322-5.084-19.061 0-7.105 1.878-13.841 5.638-20.215 3.76-6.37 8.833-11.314 15.222-14.83C118.027 1.81 124.814.053 132.001.053c5.297 0 10.889 1.136 16.777 3.405 3.408 1.32 5.573 1.98 6.501 1.98 1.186 0 2.212-.431 3.082-1.291.87-.86 1.436-2.227 1.694-4.094h2.175zm11.277 1.703h38.891v2.032h-1.944c-2.926 0-4.934.302-6.029.907-1.092.606-1.871 1.438-2.335 2.5-.465 1.06-.697 3.717-.697 7.965v36.472c0 6.665.508 11.078 1.527 13.24 1.019 2.161 2.694 3.953 5.029 5.384 2.331 1.427 5.279 2.144 8.833 2.144 4.075 0 7.545-.907 10.417-2.718 2.872-1.814 5.018-4.312 6.443-7.5 1.425-3.186 2.139-8.732 2.139-16.644V15.161c0-3.33-.351-5.715-1.055-7.141-.703-1.427-1.592-2.417-2.665-2.965-1.668-.843-4.017-1.262-7.056-1.262V1.757h26.056v2.032h-1.556c-2.11 0-3.868.423-5.279 1.262-1.407.843-2.426 2.108-3.057 3.79-.482 1.172-.721 3.276-.721 6.316v28.289c0 8.754-.584 15.07-1.751 18.95-1.168 3.882-4.011 7.452-8.529 10.71-4.517 3.26-10.685 4.89-18.499 4.89-6.519 0-11.556-.86-15.113-2.58-4.851-2.345-8.278-5.346-10.279-9.01-2.002-3.66-2.999-8.585-2.999-14.776V15.16c0-4.283-.243-6.947-.721-7.99-.482-1.043-1.316-1.875-2.498-2.499-1.186-.623-3.373-.914-6.556-.878V1.757h.004zm100.517 10.47c1.269.27 2.219.696 2.85 1.284.874.82 1.309 1.82 1.309 3.004 0 .9-.287 1.76-.863 2.585-.577.824-1.367 1.423-2.372 1.803-1.004.38-2.538.566-4.601.566h-8.644v-.495h.689c.765 0 1.316-.24 1.646-.72.207-.312.312-.975.312-1.99V6.567c0-1.122-.131-1.828-.392-2.122-.352-.391-.874-.588-1.566-.588h-.689v-.499h7.915c1.476 0 2.662.108 3.554.32 1.352.319 2.382.889 3.093 1.702.71.814 1.066 1.753 1.066 2.81a3.87 3.87 0 01-.838 2.439c-.555.72-1.378 1.25-2.469 1.598zm-7.078-.72c.334.06.714.107 1.142.14.428.032.899.046 1.411.046 1.316 0 2.302-.14 2.966-.42a3.166 3.166 0 001.519-1.286 3.578 3.578 0 00.526-1.897c0-1.06-.439-1.964-1.309-2.71-.874-.749-2.147-1.122-3.822-1.122-.899 0-1.712.097-2.433.294v6.955zm0 8.654a13.77 13.77 0 003.093.362c1.632 0 2.872-.362 3.727-1.09.856-.724 1.284-1.624 1.284-2.692 0-.703-.192-1.38-.58-2.03-.388-.648-1.019-1.16-1.893-1.534-.874-.372-1.954-.562-3.242-.562-.558 0-1.037.01-1.432.028a7.8 7.8 0 00-.961.093v7.425h.004zM291.99 9.238v7.413c0 1.416.033 2.284.101 2.6.069.315.175.537.323.66a.782.782 0 00.519.186c.279 0 .594-.076.946-.226l.189.466-3.702 1.509h-.61v-2.592c-1.062 1.14-1.874 1.857-2.433 2.151a3.747 3.747 0 01-1.769.441c-.693 0-1.294-.197-1.802-.595a3.056 3.056 0 01-1.059-1.53c-.199-.625-.297-1.506-.297-2.646v-5.46c0-.581-.062-.979-.189-1.201a1.237 1.237 0 00-.562-.513c-.246-.118-.696-.175-1.345-.168v-.495h4.337v8.184c0 1.14.199 1.89.602 2.244.398.355.884.535 1.45.535.388 0 .827-.122 1.316-.363.49-.24 1.073-.699 1.748-1.376v-6.93c0-.695-.127-1.165-.385-1.409-.257-.243-.79-.376-1.602-.394v-.495h4.224v.004zm7.186-.362v2.75c1.037-1.836 2.1-2.75 3.188-2.75.496 0 .906.15 1.229.448.323.298.486.642.486 1.036 0 .348-.116.642-.352.882s-.515.362-.838.362c-.315 0-.667-.154-1.058-.462-.392-.309-.682-.463-.871-.463-.163 0-.337.09-.525.269-.406.366-.823.968-1.255 1.803v5.865c0 .678.087 1.19.258 1.534.116.24.322.441.62.603.297.161.725.24 1.283.24v.48h-6.338v-.48c.631 0 1.099-.097 1.407-.294.225-.144.384-.37.471-.681.044-.15.069-.585.069-1.294v-4.747c0-1.423-.029-2.273-.087-2.545-.058-.273-.167-.47-.323-.595a.902.902 0 00-.587-.187c-.279 0-.595.069-.946.201l-.134-.48 3.741-1.495h.562zm8.253 4.968c-.011 1.818.435 3.241 1.338 4.274.899 1.032 1.958 1.548 3.176 1.548.813 0 1.516-.222 2.114-.66.599-.44 1.103-1.193 1.505-2.265l.417.269c-.189 1.219-.74 2.33-1.646 3.33-.91 1-2.049 1.502-3.419 1.502-1.487 0-2.76-.573-3.815-1.717-1.059-1.143-1.588-2.681-1.588-4.614 0-2.093.544-3.724 1.628-4.893 1.084-1.172 2.448-1.757 4.086-1.757 1.386 0 2.528.452 3.42 1.355.892.904 1.338 2.112 1.338 3.625h-8.554v.003zm0-.774h5.729c-.044-.785-.138-1.337-.283-1.656a2.675 2.675 0 00-1.008-1.176 2.539 2.539 0 00-1.399-.427c-.747 0-1.418.287-2.006.86-.587.574-.931 1.374-1.033 2.399zm17.793 6.636c-1.27.971-2.067 1.53-2.39 1.68a3.69 3.69 0 01-1.552.334c-.856 0-1.559-.29-2.114-.867-.555-.577-.83-1.341-.83-2.284 0-.595.134-1.115.406-1.549.37-.605 1.012-1.175 1.925-1.71.914-.534 2.433-1.183 4.558-1.95v-.48c0-1.219-.196-2.058-.587-2.51-.392-.455-.961-.68-1.708-.68-.566 0-1.019.15-1.353.455-.34.3-.514.649-.514 1.043l.025.774c0 .409-.105.724-.319.947-.21.222-.49.333-.83.333-.334 0-.606-.115-.816-.348-.211-.233-.319-.548-.319-.95 0-.767.395-1.47 1.189-2.111.794-.642 1.904-.96 3.336-.96 1.098 0 1.998.182 2.701.548.533.276.925.706 1.175 1.294.163.383.243 1.165.243 2.351v4.155c0 1.165.022 1.882.069 2.144.043.262.119.437.221.527.105.09.225.133.359.133a.743.743 0 00.377-.093c.188-.115.555-.441 1.095-.976v.75c-1.008 1.337-1.973 2.004-2.89 2.004-.442 0-.794-.151-1.055-.456-.257-.3-.395-.817-.402-1.548zm0-.868v-4.66c-1.36.534-2.238.914-2.633 1.136-.711.39-1.222.803-1.526 1.23a2.367 2.367 0 00-.461 1.401c0 .642.192 1.173.58 1.596.388.423.834.634 1.338.634.686 0 1.585-.444 2.702-1.337zm16.697-9.6v7.413c0 1.416.032 2.284.101 2.6.069.315.174.537.323.66a.781.781 0 00.518.186c.28 0 .595-.076.947-.226l.188.466-3.702 1.509h-.609v-2.592c-1.062 1.14-1.875 1.857-2.433 2.151a3.747 3.747 0 01-1.769.441c-.693 0-1.295-.197-1.802-.595a3.056 3.056 0 01-1.059-1.53c-.2-.625-.297-1.506-.297-2.646v-5.46c0-.581-.062-.979-.189-1.201a1.237 1.237 0 00-.562-.513c-.247-.118-.696-.175-1.345-.168v-.495h4.336v8.184c0 1.14.2 1.89.602 2.244.399.355.885.535 1.451.535.388 0 .826-.122 1.316-.363.489-.24 1.073-.699 1.747-1.376v-6.93c0-.695-.126-1.165-.384-1.409-.257-.243-.79-.376-1.603-.394v-.495h4.225v.004z" fill="#466466"/></svg>