<svg width="384" height="66" fill="none" xmlns="http://www.w3.org/2000/svg"><g clip-path="url(#clip0)" fill="#000"><path d="M180.461.309a3.734 3.734 0 00-1.479-.294 556.381 556.381 0 00-6.141.004c-.41.004-.825.053-1.232.128-.806.147-1.406.599-1.726 1.397-.116.286-.218.58-.298.877-.112.422-.181.859-.301 1.277-1.028 3.656-2.075 7.305-3.096 10.965-1.944 6.933-3.888 13.865-5.796 20.81-.905 3.29-1.737 6.604-2.605 9.906a2.358 2.358 0 01-.08.223h-.055c-.047-.128-.098-.256-.138-.384-.334-1.081-.683-2.154-.999-3.243-1.926-6.57-3.859-13.142-5.767-19.716-1.624-5.592-3.219-11.196-4.818-16.795-.265-.934-.483-1.88-.738-2.817a11.12 11.12 0 00-.378-1.186c-.272-.678-.759-1.122-1.46-1.261-.465-.095-.938-.174-1.41-.181a400.174 400.174 0 00-6.014-.004 5.76 5.76 0 00-1.134.132c-1.951.437-2.514 2.316-2.035 3.6.164.437.251.904.364 1.36.043.172.058.357.109.53.167.561.345 1.122.516 1.683 1.657 5.404 3.31 10.808 4.967 16.211 1.941 6.33 3.881 12.664 5.821 18.994 1.447 4.722 2.893 9.44 4.343 14.163.603 1.965 1.21 3.935 1.824 5.897.2.643.472 1.257.832 1.822.41.648.956 1.134 1.682 1.344.404.117.832.208 1.247.215 1.798.026 3.597.023 5.396.019.287 0 .577-.038.865-.064 1.271-.128 2.198-.787 2.808-1.947.327-.625.582-1.276.789-1.95.632-2.06 1.254-4.12 1.882-6.184 1.145-3.765 2.289-7.527 3.438-11.293l5.036-16.557c2.002-6.582 4.008-13.161 5.999-19.743.338-1.111.741-2.2.952-3.352.084-.448.244-.88.364-1.325.37-1.367-.273-2.723-1.534-3.261zM97.056 2.214C96.716 1.198 96.04.55 95.043.256a6.465 6.465 0 00-1.838-.245c-6.388-.003-12.78-.007-19.168 0-.629 0-1.257.06-1.886.113-1.043.087-2.06.32-3.052.66-3.125 1.065-5.527 3.072-7.199 6.006-1.271 2.233-1.915 4.673-2.205 7.23-.124 1.084-.153 2.176-.153 3.272v32.347c0 3.822-.004 7.644 0 11.466 0 .715.01 1.434.149 2.143.243 1.242.912 2.082 2.108 2.443a5.923 5.923 0 001.617.275c1.893.02 3.782.023 5.675 0a5.146 5.146 0 001.817-.365 2.673 2.673 0 001.545-1.491 4.511 4.511 0 00.36-1.616c.036-.79.054-1.585.054-2.376.004-13.707 0-27.417.004-41.124 0-.362.014-.73.072-1.088.425-2.7 2.722-4.523 5.015-4.512 4.952.023 9.905.008 14.858.008.694 0 1.384-.038 2.064-.192 1.163-.264 1.926-.972 2.26-2.165a8.37 8.37 0 00.29-2.124c.023-1.435.023-2.87 0-4.304-.014-.814-.112-1.623-.374-2.403zm42.122 39.739a8.336 8.336 0 01-.774-1.883c-1.01-3.517-2.034-7.027-3.055-10.54-.033-.11-.069-.237-.146-.313a11.09 11.09 0 00-.937-.835 1.11 1.11 0 00-.571-.215c-.545-.034-1.046.124-1.442.535a3.29 3.29 0 00-.832 1.446c-.662 2.417-1.345 4.83-1.974 7.256-.581 2.23-1.112 4.473-1.653 6.714-.113.463-.174.938-.276 1.484-.051-.14-.084-.211-.102-.286-.16-.644-.305-1.288-.476-1.928-1.304-4.843-2.587-9.69-3.932-14.52-2.314-8.326-4.669-16.641-7.013-24.955-.254-.9-.661-1.733-1.148-2.516-.421-.681-1.017-1.126-1.795-1.258a8.603 8.603 0 00-1.355-.128 319.696 319.696 0 00-4.655-.003 29.09 29.09 0 00-1.515.056 3.884 3.884 0 00-1.49.395c-.698.347-1.177.893-1.381 1.68-.138.535-.102 1.054.055 1.581.149.501.261 1.01.388 1.518.033.136.051.275.091.407.171.572.345 1.144.52 1.713l7.129 23.445c2.184 7.18 4.372 14.366 6.555 21.547.992 3.253 1.977 6.51 2.976 9.764.258.84.575 1.65 1.076 2.372.425.61.974 1.058 1.675 1.254.425.12.872.215 1.308.222 1.799.03 3.598.03 5.396.02a11.09 11.09 0 001.603-.144c1.115-.18 1.882-.828 2.267-1.935.087-.253.171-.505.236-.765.124-.508.197-1.032.349-1.529 1.33-4.334 2.671-8.66 4.008-12.991.207-.67.425-1.337.705-1.985.24-.553.425-1.137.603-1.717.178-.576.262-1.182.088-1.77-.12-.41-.291-.82-.506-1.193zM50.41 60.536a18807.922 18807.922 0 00-14.6-20.937c-1.61-2.308-3.227-4.613-4.836-6.921a.513.513 0 01-.106-.226c-.003-.068.037-.192.084-.207.203-.064.283-.245.389-.4 2.43-3.464 4.858-6.932 7.285-10.396 3.576-5.103 7.152-10.209 10.727-15.315.08-.113.156-.23.21-.354.222-.516.451-1.035.651-1.563.247-.662.422-1.34.382-2.063-.051-.95-.469-1.533-1.337-1.838-.07-.022-.139-.045-.208-.064C48.42.068 47.77.02 47.118.015a430.128 430.128 0 00-5.832-.004c-.534.004-1.072.05-1.606.12a4.945 4.945 0 00-2.627 1.202c-.592.512-1.072 1.126-1.515 1.774-4.931 7.222-9.866 14.437-14.797 21.656-.378.55-.756 1.095-1.213 1.581-.295.313-.56.66-.818 1.006a7.429 7.429 0 00-1.475 4.051c-.048.806-.026 1.608.029 2.407.065.967.269 1.905.68 2.782.312.667.708 1.28 1.144 1.868.48.644.985 1.27 1.439 1.932 4.858 7.064 9.706 14.132 14.556 21.204.502.734 1.014 1.457 1.458 2.233.512.889 1.271 1.484 2.22 1.804.621.21 1.264.331 1.918.339 1.417.019 2.835.004 4.248.004 1.44 0 2.874.01 4.313-.004.476-.004.941-.11 1.385-.313.549-.252.92-.674 1.01-1.291.185-1.254-.044-2.407-.88-3.386a5.095 5.095 0 01-.345-.444zM13.194 3.024c-.247-1.408-1-2.338-2.351-2.718A8.221 8.221 0 008.732.019 115.761 115.761 0 004.607.02C3.99.031 3.368.095 2.761.211 1.344.48.44 1.318.16 2.813A10.25 10.25 0 000 4.7v56.643c0 .203-.004.406.007.61.03.564.084 1.13.233 1.679.28 1.013.89 1.694 1.86 2.022a5.665 5.665 0 001.762.316c1.52.023 3.038.027 4.56.03.757 0 1.509-.04 2.246-.214 1.454-.343 2.253-1.209 2.519-2.73.109-.614.123-1.231.123-1.857V4.75a9.468 9.468 0 00-.116-1.725z"/><path d="M93.165 30.456c-.33-1.152-1.061-1.852-2.191-2.112a6.871 6.871 0 00-1.567-.18 834.963 834.963 0 00-7.507.003c-.545.004-1.094.049-1.635.128-.676.098-1.297.35-1.795.862-.41.422-.636.945-.778 1.51-.185.73-.25 1.476-.254 2.226-.007 1.07-.01 2.142 0 3.212.007.813.084 1.623.302 2.414.338 1.238 1.108 2.01 2.325 2.263a8.45 8.45 0 001.534.184c1.3.026 2.605.008 3.91.008.846 0 1.697.007 2.543-.004a52.197 52.197 0 002.17-.064 3.69 3.69 0 001.431-.384c.803-.392 1.261-1.08 1.512-1.936.221-.764.301-1.551.312-2.346.011-1.167.011-2.334 0-3.502-.014-.772-.098-1.536-.312-2.282zm108.466 3.469h4.033v30.501h-4.033V33.925zm9.117 0h13.14c2.598 0 4.702.764 6.315 2.297 1.613 1.532 2.42 3.682 2.42 6.454 0 2.383-.719 4.458-2.162 6.224-1.443 1.767-3.626 2.651-6.548 2.651h-9.128V64.43h-4.033V33.925h-.004zm15.432 4.187c-.868-.43-2.06-.644-3.575-.644h-7.824v10.581h7.824c1.766 0 3.198-.395 4.299-1.186 1.101-.79 1.649-2.184 1.649-4.18 0-2.244-.792-3.769-2.373-4.571zm9.419-4.187h21.403v3.728h-17.515v9.263h16.206v3.54h-16.206V60.81h17.769v3.615h-21.657v-30.5zm28.343 30.501h-4.84l10.44-15.684-9.742-14.817h4.971l7.427 11.67 7.365-11.67h4.731l-9.76 14.851 10.236 15.65h-4.93l-7.842-12.54-8.056 12.54z"/><path d="M283.797 50.644h10.065v3.84h-10.065v-3.84zm14.16-16.719h12.762c3.477 0 5.952 1.065 7.42 3.193.861 1.258 1.293 2.711 1.293 4.357 0 1.924-.53 3.498-1.588 4.73-.548.65-1.34 1.246-2.369 1.784 1.512.595 2.642 1.27 3.391 2.015 1.322 1.329 1.984 3.167 1.984 5.505 0 1.966-.6 3.747-1.799 5.34-1.792 2.383-4.64 3.573-8.547 3.573h-12.547V33.925zm11.272 12.878c1.704 0 3.03-.241 3.975-.723 1.486-.757 2.231-2.124 2.231-4.097 0-1.988-.792-3.325-2.372-4.014-.894-.384-2.221-.58-3.979-.58h-7.202v9.414h7.347zm1.344 14.083c2.471 0 4.234-.734 5.287-2.199.662-.926.992-2.048.992-3.362 0-2.215-.966-3.725-2.896-4.527-1.024-.429-2.383-.644-4.073-.644h-8.001v10.732h8.691zm24.524-9.926c.829-.109 1.385-.47 1.665-1.08.167-.332.247-.806.247-1.424 0-1.265-.436-2.184-1.312-2.756-.876-.573-2.122-.859-3.75-.859-1.882 0-3.212.524-4.001 1.567-.44.576-.727 1.434-.861 2.575h-3.379c.065-2.745.923-4.654 2.572-5.73 1.646-1.074 3.558-1.613 5.734-1.613 2.522 0 4.568.505 6.145 1.518 1.559 1.01 2.34 2.568 2.34 4.666v12.788c0 .387.076.696.233.933.156.238.479.354.977.354.16 0 .342-.01.545-.03.2-.019.418-.052.647-.094v2.764c-.563.166-.989.271-1.283.313a9.11 9.11 0 01-1.203.06c-1.242 0-2.147-.456-2.707-1.37-.294-.487-.501-1.172-.621-2.057-.734 1.006-1.791 1.88-3.169 2.617-1.377.738-2.892 1.111-4.549 1.111-1.991 0-3.619-.629-4.884-1.883-1.264-1.254-1.893-2.828-1.893-4.714 0-2.068.621-3.672 1.864-4.809s2.874-1.838 4.895-2.101l5.748-.746zm-7.591 10.122c.764.622 1.665.934 2.704.934 1.268 0 2.496-.305 3.685-.919 2.002-1.013 3.005-2.67 3.005-4.97v-3.013c-.44.298-1.007.546-1.701.746-.694.2-1.374.339-2.038.418l-2.177.286c-1.305.177-2.289.46-2.947.847-1.119.652-1.675 1.687-1.675 3.114 0 1.085.381 1.936 1.144 2.557zm17.45-18.911h3.415v3.152c1.014-1.295 2.09-2.23 3.227-2.794 1.134-.565 2.398-.847 3.786-.847 3.045 0 5.102 1.1 6.17 3.302.589 1.205.88 2.93.88 5.17v14.272h-3.67v-14.03c0-1.36-.193-2.452-.582-3.284-.639-1.386-1.802-2.079-3.484-2.079-.854 0-1.556.09-2.104.271-.989.305-1.857.915-2.602 1.83-.6.734-.992 1.495-1.17 2.275-.182.783-.269 1.901-.269 3.359V64.43h-3.597V42.17zm21.286-8.246h3.452v17.698l9.237-9.452h4.6l-8.238 8.273 8.703 13.982h-4.604l-6.74-11.323-2.958 2.97v8.353h-3.452V33.925z"/></g><defs><clipPath id="clip0"><path fill="#fff" d="M0 0h384v66H0z"/></clipPath></defs></svg>