<svg width="498" height="70" fill="none" xmlns="http://www.w3.org/2000/svg"><path d="M172.316.659H0v8.924h172.316V.66zM0 20.568v8.925h83.069c-.687.274-15.79 10.984-15.79 10.984H0v8.925h54.51l-3.982 2.746c-7.69 5.354-16.614 8.238-25.95 8.238H0v8.925h24.44c11.259 0 21.969-3.433 31.03-9.749l14.555-10.298h49.292v-8.787H82.794l3.707-2.609c7.69-5.492 16.751-8.375 26.363-8.375h59.589v-8.925H0z" fill="#000"/><path d="M99.408 60.249h-33.09v8.925h33.09v-8.925zM255.796 9.447h20.321v50.802h-13.318V19.607h-.137L246.597 60.25h-11.534l-16.064-40.642h-.137V60.25h-13.319V9.447h20.321l15.104 36.523 14.828-36.523zm29.109 0h45.31v9.61h-31.58V30.18h29.52v9.612h-29.52v20.32h-13.73V9.447zm52.587 0h31.58c17.437 0 24.989 10.16 24.989 25.4 0 15.241-7.826 25.402-23.753 25.402h-32.816V9.447zm13.73 41.19H366.6c9.062 0 13.181-5.492 13.181-16.201 0-9.337-3.981-15.24-14.554-15.24h-14.142v31.442h.137zm50.665-41.19h21.145c2.197 0 4.256.274 6.316.686a14.257 14.257 0 015.08 2.197c1.511.961 2.609 2.334 3.433 3.982.824 1.647 1.236 3.707 1.236 6.178 0 3.433-.962 6.316-2.884 8.65-1.922 2.335-4.531 3.845-7.963 4.394v.138c2.334.274 4.119.96 5.492 1.785 1.373.96 2.334 2.059 3.02 3.432.687 1.373 1.099 2.883 1.236 4.531.137 1.648.275 3.295.275 4.943v2.883c0 .962 0 1.785.137 2.61.137.823.275 1.647.412 2.333.275.687.549 1.373.824 1.785h-3.433c-.686-1.235-1.098-2.608-1.098-4.119-.138-1.647-.138-3.295-.138-4.943 0-1.647-.137-3.432-.274-5.08-.137-1.648-.549-3.158-1.373-4.531-.824-1.373-1.922-2.334-3.57-3.158-1.648-.824-3.982-1.236-7.003-1.236h-17.712v23.067h-3.158V9.447zm21.282 24.989c1.785 0 3.57-.275 5.218-.687 1.648-.412 2.883-1.098 4.119-2.06a11.81 11.81 0 002.746-3.57c.687-1.51.961-3.157.961-5.217 0-1.922-.412-3.57-1.098-4.805-.687-1.373-1.648-2.472-2.884-3.296-1.235-.823-2.608-1.51-4.119-1.785-1.51-.412-3.158-.549-4.943-.549h-18.124V34.71h18.124v-.274zm47.782 18.536h-.137c-.412 1.099-1.099 2.06-1.785 3.158-.824.961-1.785 1.785-2.884 2.609-1.098.824-2.471 1.373-3.981 1.785-1.511.412-3.021.686-4.806.686-3.845 0-6.865-.824-9.062-2.471-2.197-1.648-3.158-4.257-3.158-7.826 0-2.197.412-3.845 1.236-5.218.823-1.373 1.922-2.471 3.295-3.158 1.236-.824 2.746-1.373 4.394-1.648 1.647-.274 3.158-.549 4.531-.686l4.256-.412c1.922-.137 3.433-.412 4.531-.686 1.099-.275 1.922-.687 2.472-1.236.549-.55.961-1.236 1.098-2.06a19.31 19.31 0 00.275-3.158c0-.96-.138-1.922-.55-2.746-.412-.824-.961-1.648-1.785-2.334a6.787 6.787 0 00-3.158-1.51c-1.235-.412-2.883-.55-4.668-.55-3.295 0-5.904.824-7.963 2.472-2.06 1.648-3.158 4.119-3.296 7.277h-2.746c.137-3.982 1.511-7.002 3.845-9.062 2.334-2.06 5.766-3.02 10.16-3.02s7.552.823 9.611 2.608c2.06 1.785 3.021 3.982 3.021 6.728v22.792c0 .55.137.961.275 1.373.137.412.412.824.686 1.099.275.274.824.412 1.373.412.412 0 1.099-.138 1.922-.275v2.334c-.686.137-1.51.275-2.196.275-1.099 0-1.923-.138-2.609-.412-.687-.275-1.099-.687-1.51-1.099-.275-.411-.55-1.098-.687-1.647-.137-.687-.137-1.373-.137-2.06v-2.334h.137zm0-13.456c-.687.824-1.648 1.373-3.021 1.648-1.373.275-2.883.55-4.531.686l-4.531.412c-1.373.138-2.609.412-3.982.55-1.373.274-2.471.686-3.569 1.373-1.099.549-1.923 1.51-2.609 2.471-.687 1.099-.961 2.472-.961 4.12 0 2.745.824 4.668 2.608 6.04 1.648 1.374 4.12 1.923 7.003 1.923 3.021 0 5.492-.55 7.277-1.648 1.785-1.098 3.158-2.334 4.119-3.844.961-1.51 1.51-2.884 1.785-4.257.275-1.373.412-2.197.412-2.746v-6.728zm12.357-22.656V9.448h2.746v7.277h-2.746v.137zm0 43.389V23.726h2.746V60.25h-2.746zM498 9.447v50.802h-2.746V9.447H498z" fill="#000"/></svg>