<svg width="363" height="50" fill="none" xmlns="http://www.w3.org/2000/svg"><path d="M125.5 0H0v6.372h125.5V0zM0 14.216v6.372h60.5C60 20.784 49 28.43 49 28.43H0v6.372h39.7l-2.9 1.961c-5.6 3.824-12.1 5.882-18.9 5.882H0v6.373h17.8c8.2 0 16-2.451 22.6-6.96L51 34.704h35.9V28.43H60.3l2.7-1.863c5.6-3.921 12.2-5.98 19.2-5.98h43.4v-6.373H0z" fill="#fff"/><path d="M72.4 42.548H48.3v6.373h24.1v-6.373zM186.3 6.274h14.8v36.274h-9.7V13.53h-.1l-11.7 29.02h-8.4l-11.7-29.02h-.1v29.02h-9.7V6.273h14.8l11 26.078 10.8-26.078zm21.2 0h33v6.863h-23v7.941H239v6.863h-21.5v14.51h-10V6.273zm38.3 0h23c12.7 0 18.2 7.255 18.2 18.137 0 10.883-5.7 18.137-17.3 18.137h-23.9V6.274zm10 29.412H267c6.6 0 9.6-3.922 9.6-11.569 0-6.666-2.9-10.882-10.6-10.882h-10.3v22.45h.1zm36.9-29.412h15.4c1.6 0 3.1.196 4.6.49 1.4.295 2.7.883 3.7 1.57 1.1.685 1.9 1.666 2.5 2.842.6 1.177.9 2.647.9 4.412 0 2.45-.7 4.51-2.1 6.176-1.4 1.667-3.3 2.745-5.8 3.138V25c1.7.196 3 .686 4 1.274 1 .686 1.7 1.47 2.2 2.451.5.98.8 2.059.9 3.235.1 1.177.2 2.353.2 3.53v2.058c0 .687 0 1.275.1 1.863.1.588.2 1.177.3 1.667.2.49.4.98.6 1.274h-2.5c-.5-.882-.8-1.862-.8-2.94-.1-1.177-.1-2.354-.1-3.53 0-1.177-.1-2.451-.2-3.628-.1-1.176-.4-2.254-1-3.235-.6-.98-1.4-1.666-2.6-2.255-1.2-.588-2.9-.882-5.1-.882H295v16.47h-2.3V6.274zm15.5 17.843c1.3 0 2.6-.196 3.8-.49 1.2-.294 2.1-.784 3-1.47.8-.687 1.5-1.57 2-2.55.5-1.078.7-2.254.7-3.725 0-1.372-.3-2.549-.8-3.431a6.03 6.03 0 00-2.1-2.353c-.9-.588-1.9-1.079-3-1.275-1.1-.294-2.3-.392-3.6-.392H295v15.882h13.2v-.196zM343 37.352h-.1c-.3.785-.8 1.471-1.3 2.255-.6.687-1.3 1.275-2.1 1.863-.8.588-1.8.98-2.9 1.275-1.1.294-2.2.49-3.5.49-2.8 0-5-.588-6.6-1.765-1.6-1.176-2.3-3.04-2.3-5.588 0-1.569.3-2.745.9-3.726.6-.98 1.4-1.764 2.4-2.255.9-.588 2-.98 3.2-1.176 1.2-.196 2.3-.392 3.3-.49l3.1-.294c1.4-.098 2.5-.294 3.3-.49.8-.197 1.4-.49 1.8-.883.4-.392.7-.882.8-1.47.1-.589.2-1.373.2-2.255 0-.686-.1-1.373-.4-1.961-.3-.588-.7-1.176-1.3-1.667a4.99 4.99 0 00-2.3-1.078c-.9-.294-2.1-.392-3.4-.392-2.4 0-4.3.588-5.8 1.764-1.5 1.177-2.3 2.942-2.4 5.197h-2c.1-2.844 1.1-5 2.8-6.471 1.7-1.47 4.2-2.157 7.4-2.157s5.5.588 7 1.863c1.5 1.274 2.2 2.843 2.2 4.804v16.274c0 .392.1.686.2.98.1.294.3.589.5.785.2.196.6.294 1 .294.3 0 .8-.098 1.4-.196v1.666c-.5.099-1.1.197-1.6.197-.8 0-1.4-.098-1.9-.295-.5-.196-.8-.49-1.1-.784-.2-.294-.4-.784-.5-1.176-.1-.49-.1-.98-.1-1.47v-1.668h.1zm0-9.607c-.5.588-1.2.98-2.2 1.176-1 .196-2.1.392-3.3.49l-3.3.294c-1 .099-1.9.295-2.9.393-1 .196-1.8.49-2.6.98-.8.392-1.4 1.078-1.9 1.765-.5.784-.7 1.764-.7 2.94 0 1.962.6 3.334 1.9 4.314 1.2.98 3 1.373 5.1 1.373 2.2 0 4-.392 5.3-1.176 1.3-.785 2.3-1.667 3-2.745.7-1.079 1.1-2.06 1.3-3.04.2-.98.3-1.568.3-1.96v-4.804zm9-16.177V6.274h2v5.196h-2v.098zm0 30.98V16.47h2v26.078h-2zm10.7-36.274v36.274h-2V6.274h2z" fill="#fff"/></svg>