<svg width="299" height="96" fill="none" xmlns="http://www.w3.org/2000/svg"><g clip-path="url(#clip0)" fill="#466466"><path d="M126.147 52.983c-3.418-2.129-6.825-4.29-10.372-6.187-5.075-2.715-10.33-5.101-15.405-7.82-4.39-2.352-8.854-4.688-12.128-8.624-5.992-7.212-4-15.557 4.68-19.122 4.115-1.687 8.483-2.66 12.946-2.166 10.139 1.127 18.717 4.515 21.608 15.7.221.862 1.333 1.492 3.005 3.264.951-6.217.133-11.344.704-16.308.854-.218 1.385-.468 1.919-.468 9.229-.026 18.462-.136 27.688.051 2.63.056 5.355.696 7.845 1.591 14.996 5.4 14.485 23.553 7.539 30.9-4.151 4.39-9.16 6.1-14.924 6.265-3.414.096-6.835.018-10.415.018.689 2.77 2.077 3.705 4.298 3.75 1.904.036 3.841.128 5.701.504 5.477 1.105 9.067 4.91 12.091 9.174 3.657 5.16 6.983 10.552 10.456 15.84 3.138 4.781 5.874 9.87 10.275 13.602 12.106 0 24.024.18 35.935-.07 6.769-.144 13.325-1.915 19.372-4.99 12.43-6.324 19.475-16.673 20.912-30.367 1.768-16.842-3.668-30.973-17.748-41.123-8.537-6.158-18.338-8.615-28.735-8.662-32.303-.151-64.606-.126-96.909-.347-5.539-.036-11.085-.82-16.602-1.484-7.804-.939-15.476-.405-22.444 3.26-9.811 5.152-13.336 11.976-12.19 21.953.806 7.028 4.795 12.077 10.522 15.679 5.347 3.366 11.056 6.161 16.562 9.28 5.171 2.929 10.437 5.731 15.365 9.031 2.294 1.54 4.261 3.897 5.708 6.287 2.788 4.604 2.004 9.822-1.58 13.804-2.357 2.615-5.06 4.869-8.684 5.263-7.609.82-15.229 1.701-22.867 1.985-3.15.118-6.409-1.065-9.524-1.974-5.447-1.595-9.134-5.462-12.132-10.058-4.287-6.582-8.371-13.307-12.872-19.74-2.36-3.374-5.417-6.266-8.334-9.57 2.346-1.185 4.423-2.139 6.404-3.255 11.2-6.316 13.539-21.71 4.858-31.146-5.878-6.387-13.406-8.77-21.714-8.939-10.762-.22-21.534-.066-32.303-.044-1.275.004-2.549.188-3.849.294.49 3.138 2.56 3.23 4.806 3.22 7.885-.041 15.767-.085 23.652.025 2.468.037 4.965.394 7.384.902 15.84 3.319 17.247 19.306 12.316 28.96-.998 1.955-2.85 3.583-4.574 5.049-3.532 3.012-7.919 3.734-12.39 3.885-3.41.114-6.828.022-10.374.022.788 3.5 2.924 3.823 5.413 3.746 5.783-.18 10.53 2.117 14.062 6.574 3.09 3.9 5.856 8.054 8.747 12.11 2.56 3.587 4.825 7.428 7.697 10.746 6.523 7.543 14.375 12.511 24.941 12.161 8.644-.287 17.302-.136 25.954-.132 6.143 0 11.752-1.857 16.868-5.075 15.328-9.642 15.519-28.08.836-37.224zm60.845-41.76c10.751-.02 21.505-.152 32.248.062 3.981.077 8.062.567 11.9 1.602 10.036 2.7 17.284 8.946 21.287 18.562 5.882 14.12 6.283 28.425-.792 42.13-5.351 10.36-14.393 16.2-26.322 16.849-4.213.228-8.445.01-12.665.121-4.829.129-8.556-1.919-11.355-5.657-2.751-3.675-5.528-7.366-7.889-11.288-4.743-7.882-9.476-15.734-17.181-22.241 22.035-8 20.754-30.66 5.562-39.916 2.084-.088 3.646-.221 5.207-.225zm96.294 13.689c2.807-.586 5.705-.8 8.453-1.57 3.325-.931 5.948-2.971 6.261-6.688a51.876 51.876 0 00-.03-9.166c-.313-3.36-2.361-5.735-5.646-6.508-5.465-1.285-11.015-1.348-16.477.085-3.057.799-4.873 3.001-5.388 6.095-.251 1.495-.203 3.05-.159 4.57.015.509.427 1.002.718 1.628.965.055 1.908.177 2.844.136.534-.022 1.053-.305 1.679-.504.42-1.86.472-3.882 1.326-5.47 1.676-3.115 13.384-3.152 14.54.111.954 2.689.803 6.03.247 8.906-.435 2.25-3.094 2.382-5.241 2.721-3.771.593-7.598 1.138-11.222 2.269-3.852 1.204-5.749 4.732-4.629 8.05 1.024 3.028 2.464 5.92 3.668 8.748h23.847c-.088-1.82-.162-3.34-.254-5.285h-21.63c.114-2.28.206-4.08.32-6.394 2.45-.637 4.589-1.281 6.773-1.734z"/></g><defs><clipPath id="clip0"><path fill="#fff" transform="translate(.813)" d="M0 0h297.375v95.432H0z"/></clipPath></defs></svg>