<svg width="149" height="142" fill="none" xmlns="http://www.w3.org/2000/svg"><path d="M148.644 75.354h-4.611c-1.155 0-2.31.041-3.466-.01-.766-.031-1.029.195-1.018.978.042 3.803.01 7.605.01 11.407v1.113c-1.512 0-2.941.031-4.369-.041-.2-.01-.462-.495-.546-.804-.903-3.534-1.765-7.069-2.647-10.613-.504-2.04-.504-2.04-2.689-2.04H19.418c-.063 0-.126.01-.189 0-1.018-.165-1.438.175-1.617 1.257-.62 3.812-1.397 7.594-2.09 11.386-.084.453-.19.71-.735.7-1.712-.03-3.435-.01-5.283-.01V75.354H.356V47.007h148.288v28.347zm-57.66-23.576V71.18h4.4v-5.915c.473 0 .83.041 1.156-.01.987-.155 1.596.237 2.142 1.061.998 1.515 2.112 2.957 3.214 4.41.168.217.462.464.714.474 1.576.041 3.162.02 4.937.02a5362.33 5362.33 0 00-4.642-6.49c1.974-1.371 2.52-2.072 2.678-4.01.115-1.431.147-2.884.01-4.317-.252-2.576-1.47-4.029-4.085-4.266-3.477-.32-6.985-.257-10.524-.36zM76.417 71.18v-5.925c.483 0 .85.04 1.207-.01.988-.145 1.586.267 2.122 1.081.977 1.494 2.08 2.906 3.15 4.338.158.206.39.516.589.516 1.66.04 3.308.02 5.115.02-1.618-2.267-3.13-4.369-4.674-6.533 1.702-.824 2.636-2.164 2.71-3.936.073-1.67-.021-3.36-.095-5.039-.02-.412-.21-.834-.399-1.216-.977-1.988-2.846-2.493-4.831-2.555-2.899-.103-5.808-.052-8.707-.052-.2 0-.41.062-.588.093V71.16c1.439.02 2.836.02 4.4.02zm-21.09-19.228v13.014c0 .866-.01 1.773-.903 2.267-1.26.69-2.605.7-3.876.093-1.102-.526-1.092-1.618-1.092-2.648V51.942h-4.348c-.031.164-.063.278-.063.401-.01 4.565-.063 9.14.01 13.705.032 2.329 1.271 4.04 3.477 4.905 2.237.865 4.59.917 6.9.268 3.004-.845 4.348-2.69 4.348-5.74V51.943c-1.502.01-2.898.01-4.453.01zm8.444 0V71.19h4.306V51.953h-4.306z" fill="#466466"/><path d="M148.465 141.126H80.418v-55.53h1.166c14.872 0 29.754.01 44.626-.02.83 0 1.176.257 1.46.999 6.827 17.919 13.685 35.818 20.533 53.727.094.247.157.515.262.824zm-40.593-21.443c-.042.216-.073.278-.063.34.82 4.482 1.628 8.964 2.468 13.447.043.196.326.494.505.494 2.174.031 4.358.021 6.564.021 0-.237.021-.361 0-.474-.945-4.431-1.891-8.851-2.867-13.272-.053-.216-.389-.525-.599-.525-1.996-.052-3.991-.031-6.008-.031zm3.624-12.541c.021-.216.052-.309.042-.402a2584.53 2584.53 0 00-2.647-12.282c-.031-.165-.315-.392-.493-.392-1.744-.03-3.487-.02-5.22-.02-.032.185-.063.278-.053.35.746 4.09 1.492 8.181 2.258 12.262.032.185.347.443.536.443 1.827.052 3.665.041 5.577.041zM64.969 85.617h3.613v8.346c.703.03 1.313.062 1.985.082v12.994c-.105.051-.179.113-.263.113-1.69.124-1.69.124-1.69 1.772v10.686c.66.031 1.26.062 1.942.093v14.405c-.599.031-1.208.062-1.89.092v6.904h-3.939v-6.955h-.977c-16.1 0-32.19 0-48.291-.01-.767 0-1.134.165-1.344.968-.463 1.814-1.093 3.576-1.618 5.369-.147.515-.378.742-.966.711-1.124-.052-2.248-.021-3.508-.021.725-2.339 1.418-4.596 2.153-6.976H5.208c.063-.299.074-.505.147-.68 1.66-4.389 3.34-8.769 4.979-13.169.2-.535.472-.711 1.018-.69.935.041 1.88.041 2.815-.01.263-.021.672-.248.746-.474 1.229-3.823 2.415-7.656 3.613-11.489.031-.114.01-.237.02-.464H15.47c.357-.969.662-1.783.967-2.586 1.229-3.236 2.489-6.471 3.686-9.728.252-.68.567-1.05 1.323-.896 1.103.216 1.555-.258 1.838-1.319.568-2.164 1.334-4.266 1.985-6.41.158-.525.41-.73.988-.7.955.052 1.922.01 3.024.01-.86 2.814-1.68 5.524-2.541 8.337.336.03.598.072.861.072 12.13 0 24.25 0 36.381.02.788 0 1.02-.226.998-.989-.042-2.112-.02-4.235-.01-6.347v-1.061zM18.872 119.6H64.77v-12.427H23.515c-.452 0-.83-.021-.998.556a7362.182 7362.182 0 01-3.645 11.871zm94.378-81.516h-2.804c-3.372 0-6.754-.031-10.125.02-.809.01-1.05-.268-1.176-1.01-.316-1.895-.736-3.781-1.114-5.718h-4.61c.357 2.205.714 4.39 1.081 6.656-.357.02-.63.052-.903.052-4.096 0-8.192-.01-12.288.01-.693 0-.977-.124-.977-.897.021-12.117.021-24.224.021-36.342 0-.237.032-.484.053-.793.336-.02.64-.041.934-.041 5.945 0 11.88.01 17.813-.021.725 0 .998.237 1.229.896 4.233 12.231 8.497 24.452 12.74 36.672.042.104.052.227.126.516zM90.795 14.982c-.042.124-.063.155-.063.186.378 2.442.756 4.884 1.155 7.326.021.134.22.34.347.35 1.355.02 2.71.02 4.127.02-.535-2.72-1.029-5.285-1.533-7.872-1.397-.01-2.7-.01-4.033-.01zm2.878-5.853c-.389-2.03-.746-3.946-1.135-5.863-.042-.185-.273-.474-.43-.484-1.145-.041-2.28-.02-3.54-.02.379 2.215.725 4.276 1.082 6.367h4.023zM70.546 22.782c-.116.04-.179.072-.242.082-1.859.155-1.859.155-1.859 1.979v6.44h2.143v6.646H37.683c.766-2.257 1.512-4.42 2.247-6.574.22-.02.378-.041.525-.041 2.143-.052 2.153-.052 2.773-2.02.651-2.071 1.302-4.132 1.985-6.337-.788-.031-1.45-.062-2.174-.103.042-.278.042-.485.105-.68.767-2.205 1.565-4.39 2.31-6.595.19-.546.515-.742 1.03-.639 1.008.196 1.418-.268 1.649-1.195.367-1.473.882-2.916 1.376-4.503h-1.817c.168-.494.283-.855.41-1.216.535-1.535 1.081-3.07 1.585-4.606.158-.474.378-.752.925-.649.724.134 1.04-.196 1.239-.865C52.428.02 52.46.03 54.445.03h.987c-.273.948-.514 1.793-.767 2.7h10.598V.102h3.161c0 .629.032 1.237-.01 1.845-.042.639.2.907.86.834.4-.04.799-.01 1.261-.01v6.42h-2.058v5.698h2.037c.032 2.669.032 5.255.032 7.893zm-5.399.195c-.147-.04-.241-.082-.325-.082-5.252-.01-10.493-.02-15.744.02-.263 0-.672.382-.767.66-.62 1.855-1.176 3.74-1.743 5.616-.2.66-.389 1.33-.61 2.05h19.19v-8.264zm.105-8.098c0-1.639-.073-3.164.032-4.689.052-.793-.095-1.02-.904-1.01-3.402.031-6.805.01-10.208.01-1.481 0-1.481 0-1.922 1.402-.441 1.412-.861 2.823-1.313 4.287h14.315zm30.143 46.574v-5.615c1.439 0 2.836-.051 4.233.02.976.052 1.523.66 1.565 1.628.031.7.052 1.412 0 2.112-.084 1.267-.568 1.772-1.87 1.844-1.27.062-2.552.01-3.928.01zm-18.968-5.666c1.376 0 2.657-.052 3.928.01 1.334.062 1.828.608 1.912 1.906.02.402.01.794.01 1.196-.01 2.071-.514 2.566-2.594 2.576-1.06.01-2.122 0-3.256 0v-5.688z" fill="#466466"/></svg>