<svg width="251" height="91" fill="none" xmlns="http://www.w3.org/2000/svg"><g clip-path="url(#clip0)" fill="#466466"><path d="M11.649 90.853L0 .465h30.576l6.204 47.262c1.553-2.192 2.536-3.367 3.296-4.674 7.477-12.947 15.011-25.86 22.306-38.907C64.101 1.076 66.067-.09 69.62.01 79.037.266 88.472.1 98.592.1c-.784 1.721-1.264 3.053-1.958 4.27C80.93 31.826 65.15 59.233 49.552 86.75c-1.743 3.077-3.635 4.284-7.187 4.194-9.997-.24-20.001-.091-30.716-.091zM162.9 90.67h-31.196c-1.016-7.18-1.991-14.122-3.04-21.592-5.378 0-10.558-.265-15.68.15-1.685.14-3.701 1.72-4.75 3.217-3.52 5.013-6.486 10.424-10.08 15.38-1.115 1.538-3.544 2.936-5.419 2.994-9.608.298-19.224.14-29.857.14 2.883-5.162 5.403-9.745 7.989-14.303 5.015-8.827 10.26-17.53 14.995-26.506 1.94-3.681 4.072-5.187 8.385-5.03 10.153.373 20.323.116 31.352.116-1.751-15.13-3.437-29.658-5.18-44.69h30.799c3.85 29.766 7.724 59.672 11.682 90.124zM165.246.38c18.902 0 37.334-.016 55.757.034 1.123 0 2.238.52 3.354.794 16.894 4.144 28.304 20.053 26.445 36.88-1.975 17.844-16.16 30.907-34.112 31.122-14.011.165-28.023.033-42.34.033-1-7.801-1.933-15.106-2.974-23.23 11.657 0 22.76.05 33.864-.033 2.668-.017 5.436-.083 7.98-.786 4.941-1.357 7.981-4.815 7.997-9.985.017-5.138-2.817-8.662-7.865-10.043-1.999-.546-4.147-.77-6.229-.786-11.359-.075-22.71-.14-34.07.025-3.354.05-4.717-.927-5.048-4.418-.595-6.428-1.768-12.815-2.759-19.606z"/></g><defs><clipPath id="clip0"><path fill="#fff" d="M0 0h251v91H0z"/></clipPath></defs></svg>