<svg width="804" height="385" viewBox="0 0 804 385" fill="none" xmlns="http://www.w3.org/2000/svg">
<path d="M739.965 158.71H734.005V385H739.965V158.71Z" fill="#466466"/>
<path d="M676.088 158.71H664.297V385H676.088V158.71Z" fill="#466466"/>
<path d="M612.47 158.71H594.719V385H612.47V158.71Z" fill="#466466"/>
<path d="M548.722 158.71H525.011V385H548.722V158.71Z" fill="#466466"/>
<path d="M484.845 158.71H455.303V385H484.845V158.71Z" fill="#466466"/>
<path d="M415.267 158.71H391.556V385H415.267V158.71Z" fill="#466466"/>
<path d="M345.559 158.71H327.808V385H345.559V158.71Z" fill="#466466"/>
<path d="M612.47 -97H594.719V129.29H612.47V-97Z" fill="#466466"/>
<path d="M676.088 -97H664.297V129.29H676.088V-97Z" fill="#466466"/>
<path d="M548.722 -97H525.011V129.29H548.722V-97Z" fill="#466466"/>
<path d="M484.845 -97H455.303V129.29H484.845V-97Z" fill="#466466"/>
<path d="M415.267 -97H391.556V129.29H415.267V-97Z" fill="#466466"/>
<path d="M345.559 -97H327.808V129.29H345.559V-97Z" fill="#466466"/>
<path d="M275.721 -97H263.931V129.29H275.721V-97Z" fill="#466466"/>
<path d="M206.143 -97H200.183V129.29H206.143V-97Z" fill="#466466"/>
<path d="M139.416 -97H133.456V129.29H139.416V-97Z" fill="#466466"/>
<path d="M72.6877 -97H66.7275V129.29H72.6877V-97Z" fill="#466466"/>
<path d="M5.96015 -97H0V129.29H5.96015V-97Z" fill="#466466"/>
</svg>
