<?xml version="1.0" encoding="utf-8"?>
<!-- Generator: Adobe Illustrator 25.2.1, SVG Export Plug-In . SVG Version: 6.00 Build 0)  -->
<svg version="1.1" id="Layer_1" xmlns="http://www.w3.org/2000/svg" xmlns:xlink="http://www.w3.org/1999/xlink" x="0px" y="0px"
	 viewBox="0 0 236.2 236.2" style="enable-background:new 0 0 236.2 236.2;" xml:space="preserve">
<style type="text/css">
	.st0{fill:#03FF69;}
	.st1{fill:#466466;}
</style>
<g>
	<rect x="94.9" y="97.3" class="st0" width="43.4" height="43.4"/>
</g>
<g>
	<path class="st1" d="M218.7,119l-0.5-1.2c-14.2-31.3-54.6-52.3-100.5-52.3c-0.2,0-0.5,0-0.7,0c-0.1,0-0.3,0-0.4,0
		c-0.5,0-0.9,0-1.4,0c-44.8,0.8-84,21.6-98,52.3l-0.5,1.2l0.5,1.2c14,30.7,53.2,51.6,98,52.3c0.5,0,0.9,0,1.4,0c0.1,0,0.3,0,0.4,0
		c0.2,0,0.5,0,0.7,0c45.9,0,86.2-21,100.5-52.3L218.7,119z M117,166.8c-0.6,0-1.1,0-1.7,0c-25.8-0.7-46.5-21.9-46.5-47.8
		c0-25.9,20.7-47.1,46.5-47.8c0.6,0,1.1,0,1.7,0c26.2,0.2,47.4,21.6,47.4,47.8C164.4,145.3,143.2,166.6,117,166.8z M22.9,119
		c10.4-21.5,34.3-37.7,63.8-44.4c-14.3,9.6-23.7,25.9-23.7,44.4c0,18.5,9.4,34.8,23.7,44.4C57.2,156.7,33.3,140.5,22.9,119z
		 M145.4,164.1c14.9-9.5,24.8-26.2,24.8-45.1c0-18.9-9.9-35.6-24.8-45.1c31,6.2,56.3,22.8,67.1,45.1
		C201.7,141.3,176.4,157.9,145.4,164.1z"/>
	<rect x="115.6" y="-0.1" class="st1" width="5.7" height="36.8"/>
	
		<rect x="151.9" y="29.1" transform="matrix(0.4732 -0.881 0.881 0.4732 61.3783 166.5648)" class="st1" width="36.1" height="5.7"/>
	
		<rect x="202" y="59.8" transform="matrix(0.8496 -0.5274 0.5274 0.8496 -6.023720e-02 125.1621)" class="st1" width="34.9" height="5.7"/>
	<rect x="62.6" y="13.9" transform="matrix(0.881 -0.4731 0.4731 0.881 -7.3387 34.7466)" class="st1" width="5.7" height="36.1"/>
	<rect x="13" y="45.3" transform="matrix(0.5274 -0.8496 0.8496 0.5274 -45.7465 43.1374)" class="st1" width="5.7" height="34.9"/>
	<rect x="114.1" y="199.3" class="st1" width="5.7" height="36.8"/>
	
		<rect x="47.3" y="201.1" transform="matrix(0.4732 -0.881 0.881 0.4732 -145.2184 165.0573)" class="st1" width="36.1" height="5.7"/>
	
		<rect x="-1.5" y="170.4" transform="matrix(0.8497 -0.5273 0.5273 0.8497 -88.9504 34.4218)" class="st1" width="34.9" height="5.7"/>
	
		<rect x="167.1" y="185.9" transform="matrix(0.881 -0.4731 0.4731 0.881 -76.2695 104.6863)" class="st1" width="5.7" height="36.1"/>
	
		<rect x="216.6" y="155.8" transform="matrix(0.5274 -0.8496 0.8496 0.5274 -43.4533 268.3413)" class="st1" width="5.7" height="34.9"/>
</g>
</svg>
