<svg width="1920" height="406" viewBox="0 0 1920 406" fill="none" xmlns="http://www.w3.org/2000/svg">
<path fill-rule="evenodd" clip-rule="evenodd" d="M1920 56.4872L0 56.4873L-2.50852e-07 49.4265L1920 49.4264L1920 56.4872Z" fill="#34494C"/>
<path fill-rule="evenodd" clip-rule="evenodd" d="M-3.13565e-07 0.000193596L1920 9.03376e-05L1920 8.82607L0 8.82617L-3.13565e-07 0.000193596Z" fill="#34494C"/>
<path fill-rule="evenodd" clip-rule="evenodd" d="M-3.13565e-07 97.0871L1920 97.087L1920 105.913L0 105.913L-3.13565e-07 97.0871Z" fill="#34494C"/>
<path fill-rule="evenodd" clip-rule="evenodd" d="M-6.27135e-07 141.218L1920 141.217L1920 158.87L0 158.87L-6.27135e-07 141.218Z" fill="#34494C"/>
<path fill-rule="evenodd" clip-rule="evenodd" d="M-8.15276e-07 187.113L1920 187.113L1920 210.061L0 210.061L-8.15276e-07 187.113Z" fill="#34494C"/>
<path fill-rule="evenodd" clip-rule="evenodd" d="M-1.12885e-06 231.243L1920 231.243L1920 263.017L0 263.017L-1.12885e-06 231.243Z" fill="#34494C"/>
<path fill-rule="evenodd" clip-rule="evenodd" d="M-1.44241e-06 275.374L1920 275.374L1920 315.974L0 315.974L-1.44241e-06 275.374Z" fill="#34494C"/>
<path fill-rule="evenodd" clip-rule="evenodd" d="M-1.12885e-06 328.33L1920 328.33L1920 360.104L0 360.104L-1.12885e-06 328.33Z" fill="#34494C"/>
<path fill-rule="evenodd" clip-rule="evenodd" d="M-8.7799e-07 381.287L1920 381.287L1920 406L0 406L-8.7799e-07 381.287Z" fill="#34494C"/>
</svg>
