<svg xmlns="http://www.w3.org/2000/svg" viewBox="0 0 745.9 904.9"><path d="M745.9 313.7h-17.8v277.6h17.8V313.7zm-63.7 0h-23.7v277.6h23.7V313.7zm-63.9 0h-29.5v277.6h29.5V313.7zm-69.6 0H525v277.6h23.7V313.7zm-69.7 0h-17.8v277.6H479V313.7zm139.3 313.6h-29.5v277.6h29.5V627.3zm63.9 0h-23.7v277.6h23.7V627.3zm-133.5 0H525v277.6h23.7V627.3zm-69.7 0h-17.8v277.6H479V627.3zm-69.8 0h-11.8v277.6h11.8V627.3zm-69.6 0h-6v277.6h6V627.3zm-66.7 0h-6v277.6h6V627.3zm-66.8 0h-6v277.6h6V627.3zm-66.7 0h-6v277.6h6V627.3zm-66.7 0h-6v277.6h6V627.3zm-66.7 0H0v277.6h6V627.3zM745.9 0h-17.8v277.6h17.8V0zm-63.7 0h-23.7v277.6h23.7V0zm-63.9 0h-29.5v277.6h29.5V0zm-69.6 0H525v277.6h23.7V0zM479 0h-17.8v277.6H479V0zm-69.8 0h-11.8v277.6h11.8V0zm-69.6 0h-6v277.6h6V0zm-66.7 0h-6v277.6h6V0zm-66.8 0h-6v277.6h6V0zm-66.7 0h-6v277.6h6V0z" fill="#03ff69"/></svg>