<svg width="804" height="385" fill="none" xmlns="http://www.w3.org/2000/svg"><path d="M739.965 158.71h-5.96V385h5.96V158.71zm-63.877 0h-11.791V385h11.791V158.71zm-63.618 0h-17.751V385h17.751V158.71zm-63.748 0h-23.711V385h23.711V158.71zm-63.877 0h-29.542V385h29.542V158.71zm-69.578 0h-23.711V385h23.711V158.71zm-69.708 0h-17.751V385h17.751V158.71zM612.47-97h-17.751v226.29h17.751V-97zm63.618 0h-11.791v226.29h11.791V-97zm-127.366 0h-23.711v226.29h23.711V-97zm-63.877 0h-29.542v226.29h29.542V-97zm-69.578 0h-23.711v226.29h23.711V-97zm-69.708 0h-17.751v226.29h17.751V-97zm-69.838 0h-11.79v226.29h11.79V-97zm-69.578 0h-5.96v226.29h5.96V-97zm-66.727 0h-5.96v226.29h5.96V-97zm-66.728 0h-5.96v226.29h5.96V-97zM5.96-97H0v226.29h5.96V-97z" fill="#466466"/></svg>