<svg version="1.1" id="Layer_1" xmlns="http://www.w3.org/2000/svg" x="0" y="0" viewBox="0 0 236.2 236.2" xml:space="preserve"><style>.st1{fill:#466466}</style><path fill="#03ff69" d="M94.9 97.3h43.4v43.4H94.9z"/><path class="st1" d="M218.7 119l-.5-1.2C204 86.5 163.6 65.5 117.7 65.5h-2.5c-44.8.8-84 21.6-98 52.3l-.5 1.2.5 1.2c14 30.7 53.2 51.6 98 52.3h2.5c45.9 0 86.2-21 100.5-52.3l.5-1.2zM117 166.8h-1.7c-25.8-.7-46.5-21.9-46.5-47.8s20.7-47.1 46.5-47.8h1.7c26.2.2 47.4 21.6 47.4 47.8 0 26.3-21.2 47.6-47.4 47.8zM22.9 119c10.4-21.5 34.3-37.7 63.8-44.4C72.4 84.2 63 100.5 63 119s9.4 34.8 23.7 44.4c-29.5-6.7-53.4-22.9-63.8-44.4zm122.5 45.1c14.9-9.5 24.8-26.2 24.8-45.1 0-18.9-9.9-35.6-24.8-45.1 31 6.2 56.3 22.8 67.1 45.1-10.8 22.3-36.1 38.9-67.1 45.1zM115.6-.1h5.7v36.8h-5.7z"/><path transform="rotate(-61.759 169.95 31.962)" class="st1" d="M151.9 29.1H188v5.7h-36.1z"/><path transform="rotate(-31.832 219.44 62.693)" class="st1" d="M202 59.8h34.9v5.7H202z"/><path transform="rotate(-28.237 65.405 31.963)" class="st1" d="M62.6 13.9h5.7V50h-5.7z"/><path transform="rotate(-58.17 15.902 62.69)" class="st1" d="M13 45.3h5.7v34.9H13z"/><path class="st1" d="M114.1 199.3h5.7v36.8h-5.7z"/><path transform="rotate(-61.759 65.396 203.94)" class="st1" d="M47.3 201.1h36.1v5.7H47.3z"/><path transform="rotate(-31.821 15.904 173.224)" class="st1" d="M-1.5 170.4h34.9v5.7H-1.5z"/><path transform="rotate(-28.237 169.973 203.966)" class="st1" d="M167.1 185.9h5.7V222h-5.7z"/><path transform="rotate(-58.17 219.48 173.234)" class="st1" d="M216.6 155.8h5.7v34.9h-5.7z"/></svg>