<?xml version="1.0" encoding="utf-8"?>
<!-- Generator: Adobe Illustrator 24.2.3, SVG Export Plug-In . SVG Version: 6.00 Build 0)  -->
<svg version="1.1" id="Layer_1" xmlns="http://www.w3.org/2000/svg" xmlns:xlink="http://www.w3.org/1999/xlink" x="0px" y="0px"
	 viewBox="0 0 745.9 904.9" style="enable-background:new 0 0 745.9 904.9;" xml:space="preserve">
<style type="text/css">
	.st0{fill:#03FF69;}
</style>
<path class="st0" d="M745.9,313.7h-17.8v277.6h17.8V313.7z"/>
<path class="st0" d="M682.2,313.7h-23.7v277.6h23.7V313.7z"/>
<path class="st0" d="M618.3,313.7h-29.5v277.6h29.5V313.7z"/>
<path class="st0" d="M548.7,313.7H525v277.6h23.7V313.7z"/>
<path class="st0" d="M479,313.7h-17.8v277.6H479V313.7z"/>
<path class="st0" d="M618.3,627.3h-29.5v277.6h29.5V627.3z"/>
<path class="st0" d="M682.2,627.3h-23.7v277.6h23.7V627.3z"/>
<path class="st0" d="M548.7,627.3H525v277.6h23.7V627.3z"/>
<path class="st0" d="M479,627.3h-17.8v277.6H479V627.3z"/>
<path class="st0" d="M409.2,627.3h-11.8v277.6h11.8V627.3z"/>
<path class="st0" d="M339.6,627.3h-6v277.6h6V627.3z"/>
<path class="st0" d="M272.9,627.3h-6v277.6h6V627.3z"/>
<path class="st0" d="M206.1,627.3h-6v277.6h6V627.3z"/>
<path class="st0" d="M139.4,627.3h-6v277.6h6V627.3z"/>
<path class="st0" d="M72.7,627.3h-6v277.6h6V627.3z"/>
<path class="st0" d="M6,627.3H0v277.6h6V627.3z"/>
<path class="st0" d="M745.9,0h-17.8v277.6h17.8V0z"/>
<path class="st0" d="M682.2,0h-23.7v277.6h23.7V0z"/>
<path class="st0" d="M618.3,0h-29.5v277.6h29.5V0z"/>
<path class="st0" d="M548.7,0H525v277.6h23.7V0z"/>
<path class="st0" d="M479,0h-17.8v277.6H479V0z"/>
<path class="st0" d="M409.2,0h-11.8v277.6h11.8V0z"/>
<path class="st0" d="M339.6,0h-6v277.6h6V0z"/>
<path class="st0" d="M272.9,0h-6v277.6h6V0z"/>
<path class="st0" d="M206.1,0h-6v277.6h6V0z"/>
<path class="st0" d="M139.4,0h-6v277.6h6V0z"/>
</svg>
